<svg width="208" height="86" viewBox="0 0 208 86" fill="none" xmlns="http://www.w3.org/2000/svg">
<path d="M22.7848 57.8149H15.6975V70.8538H89.4827V63.7601H22.7848V57.8149Z" fill="#007091"/>
<path d="M22.7848 27.5879V21.6427H89.4827V14.5491H15.6975V27.5879H22.7848Z" fill="#007091"/>
<path d="M7.09364 27.5878V7.09364H89.4826V0H0V27.5878H7.09364Z" fill="#007091"/>
<path d="M7.09364 57.8086H0V85.4027H89.4826V78.3091H7.09364V57.8086Z" fill="#007091"/>
<path d="M97.116 41.8625V38.1327H99.0062C99.1578 38.1327 99.3229 38.1765 99.5015 38.2641C99.68 38.3484 99.8317 38.4798 99.9563 38.6583C100.084 38.8335 100.148 39.0559 100.148 39.3254C100.148 39.5984 100.083 39.8308 99.9513 40.0229C99.8199 40.2116 99.6598 40.3547 99.4711 40.4525C99.2858 40.5502 99.1106 40.599 98.9455 40.599H97.581V39.9926H98.6929C98.804 39.9926 98.9236 39.937 99.0517 39.8258C99.1831 39.7146 99.2488 39.5478 99.2488 39.3254C99.2488 39.0963 99.1831 38.9413 99.0517 38.8605C98.9236 38.7796 98.8108 38.7392 98.7131 38.7392H97.9348V41.8625H97.116ZM99.3701 40.1037L100.3 41.8625H99.4004L98.4907 40.1037H99.3701ZM98.5311 44.0862C97.9718 44.0862 97.4479 43.9817 96.9594 43.7728C96.4708 43.564 96.0413 43.2742 95.6706 42.9036C95.3 42.533 95.0103 42.1034 94.8014 41.6148C94.5925 41.1263 94.488 40.6024 94.488 40.0431C94.488 39.4838 94.5925 38.9599 94.8014 38.4713C95.0103 37.9828 95.3 37.5532 95.6706 37.1826C96.0413 36.812 96.4708 36.5222 96.9594 36.3133C97.4479 36.1044 97.9718 36 98.5311 36C99.0904 36 99.6143 36.1044 100.103 36.3133C100.591 36.5222 101.021 36.812 101.392 37.1826C101.762 37.5532 102.052 37.9828 102.261 38.4713C102.47 38.9599 102.574 39.4838 102.574 40.0431C102.574 40.6024 102.47 41.1263 102.261 41.6148C102.052 42.1034 101.762 42.533 101.392 42.9036C101.021 43.2742 100.591 43.564 100.103 43.7728C99.6143 43.9817 99.0904 44.0862 98.5311 44.0862ZM98.5311 43.1158C99.0972 43.1158 99.6127 42.9777 100.078 42.7014C100.543 42.4251 100.913 42.0545 101.189 41.5896C101.466 41.1246 101.604 40.6091 101.604 40.0431C101.604 39.4771 101.466 38.9616 101.189 38.4966C100.913 38.0317 100.543 37.661 100.078 37.3848C99.6127 37.1085 99.0972 36.9703 98.5311 36.9703C97.9651 36.9703 97.4496 37.1085 96.9846 37.3848C96.5197 37.661 96.1491 38.0317 95.8728 38.4966C95.5965 38.9616 95.4584 39.4771 95.4584 40.0431C95.4584 40.6091 95.5965 41.1246 95.8728 41.5896C96.1491 42.0545 96.5197 42.4251 96.9846 42.7014C97.4496 42.9777 97.9651 43.1158 98.5311 43.1158Z" fill="black"/>
<path d="M9.594 49.0001H0V36.4001H9.504V38.8661H2.754V41.4221H8.694V43.8881H2.754V46.5341H9.594V49.0001Z" fill="black"/>
<path d="M29.6086 42.7001C29.6086 46.2461 26.8726 49.0001 22.9126 49.0001H17.9986V36.4001H22.9126C26.8726 36.4001 29.6086 39.1181 29.6086 42.6641V42.7001ZM26.7106 42.7361V42.7001C26.7106 40.4681 25.1806 38.9021 22.9126 38.9021H20.7706V46.4981H22.9126C25.1806 46.4981 26.7106 44.9681 26.7106 42.7361Z" fill="black"/>
<path d="M49.4667 47.2181C48.1707 48.3161 46.3887 49.2161 44.0847 49.2161C40.1607 49.2161 37.4607 46.4621 37.4607 42.7361V42.7001C37.4607 39.1181 40.2507 36.1841 44.0667 36.1841C46.3347 36.1841 47.7027 36.7961 49.0167 37.9121L47.2707 40.0181C46.2987 39.2081 45.4347 38.7401 43.9767 38.7401C41.9607 38.7401 40.3587 40.5221 40.3587 42.6641V42.7001C40.3587 45.0041 41.9427 46.6961 44.1747 46.6961C45.1827 46.6961 46.0827 46.4441 46.7847 45.9401V44.1401H43.9947V41.7461H49.4667V47.2181Z" fill="black"/>
<path d="M70.3499 49.0001H67.4519L66.2999 46.1741H60.9719L59.8199 49.0001H56.9939L62.3939 36.3101H64.9499L70.3499 49.0001ZM65.3099 43.7261L63.6359 39.6401L61.9619 43.7261H65.3099Z" fill="black"/>
<path d="M89.1246 49.0001H85.8846L83.1846 44.9681H81.0066V49.0001H78.2346V36.4001H83.9946C86.9646 36.4001 88.7466 37.9661 88.7466 40.5581V40.5941C88.7466 42.6281 87.6486 43.9061 86.0466 44.5001L89.1246 49.0001ZM85.9386 40.7381V40.7021C85.9386 39.5141 85.1106 38.9021 83.7606 38.9021H81.0066V42.5201H83.8146C85.1646 42.5201 85.9386 41.8001 85.9386 40.7381Z" fill="black"/>
<path d="M121.083 42.6821C121.083 43.5581 120.927 44.3921 120.615 45.1841C120.303 45.9641 119.865 46.6541 119.301 47.2541C118.737 47.8541 118.059 48.3341 117.267 48.6941C116.475 49.0421 115.599 49.2161 114.639 49.2161C113.679 49.2161 112.803 49.0421 112.011 48.6941C111.231 48.3461 110.559 47.8781 109.995 47.2901C109.431 46.6901 108.993 46.0001 108.681 45.2201C108.381 44.4281 108.231 43.5941 108.231 42.7181C108.231 41.8421 108.387 41.0141 108.699 40.2341C109.011 39.4421 109.449 38.7461 110.013 38.1461C110.577 37.5461 111.255 37.0721 112.047 36.7241C112.839 36.3641 113.715 36.1841 114.675 36.1841C115.635 36.1841 116.505 36.3581 117.285 36.7061C118.077 37.0541 118.755 37.5281 119.319 38.1281C119.883 38.7161 120.315 39.4061 120.615 40.1981C120.927 40.9781 121.083 41.8061 121.083 42.6821ZM119.607 42.7181C119.607 41.9981 119.481 41.3201 119.229 40.6841C118.989 40.0481 118.647 39.4961 118.203 39.0281C117.759 38.5601 117.231 38.1881 116.619 37.9121C116.019 37.6361 115.359 37.4981 114.639 37.4981C113.919 37.4981 113.253 37.6361 112.641 37.9121C112.041 38.1761 111.525 38.5421 111.093 39.0101C110.661 39.4781 110.319 40.0301 110.067 40.6661C109.827 41.2901 109.707 41.9621 109.707 42.6821C109.707 43.4021 109.827 44.0801 110.067 44.7161C110.319 45.3521 110.667 45.9041 111.111 46.3721C111.555 46.8401 112.077 47.2121 112.677 47.4881C113.289 47.7641 113.955 47.9021 114.675 47.9021C115.395 47.9021 116.055 47.7701 116.655 47.5061C117.267 47.2301 117.789 46.8581 118.221 46.3901C118.653 45.9221 118.989 45.3761 119.229 44.7521C119.481 44.1161 119.607 43.4381 119.607 42.7181Z" fill="black"/>
<path d="M139.292 46.4981V36.4001H140.678V49.0001H139.544L131.408 38.6681V49.0001H130.022V36.4001H131.354L139.292 46.4981Z" fill="black"/>
<path d="M150.183 49.0001V36.4001H151.605V47.6861H158.697V49.0001H150.183Z" fill="black"/>
<path d="M167.393 36.4001H168.815V49.0001H167.393V36.4001Z" fill="black"/>
<path d="M187.715 46.4981V36.4001H189.101V49.0001H187.967L179.831 38.6681V49.0001H178.445V36.4001H179.777L187.715 46.4981Z" fill="black"/>
<path d="M207.714 36.4001V37.6961H200.028V41.9981H206.904V43.2941H200.028V47.7041H207.804V49.0001H198.606V36.4001H207.714Z" fill="black"/>
</svg>
