<svg xmlns="http://www.w3.org/2000/svg" viewBox="0 0 750 500"><g id="freepik--Shadow--inject-84"><ellipse cx="375" cy="445.41" rx="296.03" ry="14.23" style="fill:#ebebeb"></ellipse></g><g id="freepik--Plants--inject-84"><path d="M193.69,388.25H116.92s.18-11.42,7.72-14.45a10.28,10.28,0,0,1,12,2.88s3.08-21,17.14-21,20.79,18.13,20.79,18.13,3.15-5.48,11-4.46S193.69,388.25,193.69,388.25Z" style="fill:#37474f"></path><path d="M130.68,388.25H59.89s2.33-10,7-10.68,6.87,3.92,6.87,3.92-.21-13.92,8.56-16.29,16.12,9.93,16.12,9.93,5.49-7,13-6.57,9.4,12,9.4,12S127.67,376.57,130.68,388.25Z" style="fill:#455a64"></path><path d="M322.13,388.25H278.64s.1-6.47,4.38-8.19a5.82,5.82,0,0,1,6.81,1.64s1.75-11.91,9.72-11.91,11.78,10.27,11.78,10.27a6.09,6.09,0,0,1,6.2-2.52C322,378.11,322.13,388.25,322.13,388.25Z" style="fill:#455a64"></path><path d="M690.11,388.25s-2.35-11-7.05-12.67-7.56,3.24-7.56,3.24-1.11-10.49-7.78-13.63-11.66,3.29-11.66,3.29-5.12-13.32-14.25-13.32-13.75,19.48-13.75,19.48-5.39-5.8-10.91-2.53-5.53,16.14-5.53,16.14Z" style="fill:#37474f"></path><path d="M616.69,388.25H573.2s.1-6.47,4.38-8.19a5.82,5.82,0,0,1,6.81,1.64s1.75-11.91,9.71-11.91,11.79,10.27,11.79,10.27a6.09,6.09,0,0,1,6.2-2.52C616.52,378.11,616.69,388.25,616.69,388.25Z" style="fill:#455a64"></path></g><g id="freepik--character-4--inject-84"><path d="M574.28,208.78c.54.88,53.85,9.62,56.49,9.19l.37-.11c3.33-1.11,19.53-12.8,20.76-13.8,3-2.45-5.86-23.3-9-26.94-2.12-2.43-6.42-3.79-6.42-3.79s-8.18-37.29-15-45.69c-1.69-2.11-34.84-6.77-41.1-4.76-2.68.86-9.61,6.44-9.91,7.56h0C570.12,132.08,573.74,207.88,574.28,208.78Z" style="fill:#455a64"></path><path d="M574.28,208.78c.54.88,53.85,9.62,56.49,9.19l.37-.11c-3.49-14.49-19.94-82.5-20.57-83s-32.42-4.06-40.09-4.41C570.12,132.08,573.74,207.88,574.28,208.78Z" style="fill:#37474f"></path><path d="M569.22,119.35c.26,4.85,2,8.75,3.93,9.12v.05l44.94,3.77-.93-18.67L573.29,110a1.63,1.63,0,0,0-.68-.12,1,1,0,0,0-.24,0h-.16v.05C570.3,110.48,569,114.53,569.22,119.35Z" style="fill:#00573F"></path><path d="M569.22,119.35c.26,4.85,2,8.75,3.93,9.12v.05l44.94,3.77-.93-18.67L573.29,110a1.63,1.63,0,0,0-.68-.12,1,1,0,0,0-.24,0h-.16v.05C570.3,110.48,569,114.53,569.22,119.35Z" style="opacity:0.1"></path><ellipse cx="617.63" cy="122.95" rx="3.85" ry="9.34" transform="translate(-5.37 30.99) rotate(-2.86)" style="fill:#00573F"></ellipse><path d="M518.31,439.07c2.22.72,67.68-.1,70.06-1.66.92-.58-3.68-62.17-3.68-62.17l-42.3.43,4.5,41.2S522.83,428,520.38,430,516.09,438.37,518.31,439.07Z" style="fill:#ad6359"></path><path d="M518.31,439.07c2.21.72,67.68-.1,70.06-1.66.43-.26-.32-13.48-1.25-27.66h-41l.78,7.12S522.82,428,520.38,430,516.08,438.36,518.31,439.07Z" style="fill:#fff"></path><path d="M517.59,440c2.33.77,68.43.14,70.95-1.49,1-.61-.43-22.41-.43-22.53H547.22l0,.73s-25.41,11.65-28,13.74S515.25,439.22,517.59,440Z" style="fill:#a6a6a6"></path><path d="M517.77,437.38c11.23-.38,56.57-.85,67.7-.38.09,0,.09.07,0,.07-11.12.62-56.47.73-67.7.5C517.53,437.56,517.53,437.39,517.77,437.38Z" style="fill:#263238"></path><path d="M542.44,416.12c4.41-.87,9.83-.24,13.23,2.88.14.12,0,.3-.18.26a62.14,62.14,0,0,0-13-2.58A.28.28,0,0,1,542.44,416.12Z" style="fill:#263238"></path><path d="M539.27,418.07c4.41-.87,9.82-.24,13.23,2.88.13.12,0,.31-.19.26a61.92,61.92,0,0,0-13-2.58A.28.28,0,0,1,539.27,418.07Z" style="fill:#263238"></path><path d="M536.09,420c4.42-.86,9.83-.24,13.24,2.88.13.12-.05.31-.19.27a62,62,0,0,0-13-2.59A.28.28,0,0,1,536.09,420Z" style="fill:#263238"></path><path d="M541.61,389.13h45.55a22.71,22.71,0,0,0,1.72-11.21c-1.82-21.83-8.33-68.41-8.06-69.83.46-2.38,3.15-13.15,6.72-27.21,1.13-4.4,2.34-9.12,3.59-14,3.4-13.23,7.14-27.69,10.4-40.28,4.9-18.85,8.72-33.5,8.72-33.5h-38.6s-4.5,14.26-10.17,32.81c-9.23,30.16-21.58,71.66-22.8,81.75-1.48,12.21-2.4,51.52-1.11,70.63A21.27,21.27,0,0,0,541.61,389.13Z" style="fill:#455a64"></path><path d="M543.73,380.83c6.94-.15,4.95-.21,11.89-.27,3.4,0,25.74-.23,28.91.3a.07.07,0,0,1,0,.14c-3.17.52-25.51.33-28.91.3-6.94-.07-5-.13-11.89-.27A.1.1,0,0,1,543.73,380.83Z" style="fill:#263238"></path><path d="M603.23,198.32l-7.08,24.93-6.9,25c-2.3,8.32-4.52,16.67-6.74,25s-4.4,16.71-6.44,25.12c-.49,2.1-1,4.2-1.41,6.34-.11.53-.18,1.08-.28,1.62,0,.3,0,.63,0,.91l.07.81.25,3.23,1,12.91,2,25.84,1.76,24,0,.28.51-.32-1.48-24-1.9-25.84-1-12.93-.24-3.23-.06-.8c0-.26,0-.47,0-.71.1-.52.17-1,.28-1.57.42-2.1.93-4.2,1.42-6.3,4.05-16.78,8.56-33.46,13-50.17Z" style="fill:#263238"></path><path d="M572.58,193.08c2.68,20.73,12.37,55.17,16.09,83.37,8.71-34.17,21.58-83.37,21.58-83.37Z" style="fill:#263238"></path><path d="M665.6,438.74c-2.23.7-57.22.95-59.6-.65-.91-.59-1.24-9.86-1.31-21.07v-.35c0-2.31-5.33-41.15-5.33-41.15l41.53.85,4.81,40.79,0,.7s15.51,9.72,17.94,11.75S667.84,438.06,665.6,438.74Z" style="fill:#ad6359"></path><path d="M603.92,409.75c.47,3.72.77,6.37.77,6.92V417c.07,11.21.39,20.48,1.31,21.07,2.38,1.6,57.37,1.36,59.61.66s.42-7.12-2-9.14-17.94-11.76-17.94-11.76l0-.69-.87-7.41Z" style="fill:#fff"></path><path d="M668.32,440c-2.34.77-61.47.14-64-1.49-1-.61.43-22.41.43-22.53h40.89l0,.73s18.44,11.65,21,13.74S670.66,439.22,668.32,440Z" style="fill:#a6a6a6"></path><path d="M668.14,437.38c-11.23-.38-49.61-.85-60.74-.38-.09,0-.09.07,0,.07,11.13.62,49.5.73,60.74.5C668.38,437.56,668.38,437.39,668.14,437.38Z" style="fill:#263238"></path><path d="M642.33,417.32c-5.6-1.54-12.57-1.53-17.12,1.54-.17.12,0,.35.22.32A88.05,88.05,0,0,1,642.27,418,.32.32,0,0,0,642.33,417.32Z" style="fill:#263238"></path><path d="M646.28,419.94c-5.6-1.55-12.57-1.54-17.12,1.54-.17.12,0,.35.22.32a88.06,88.06,0,0,1,16.84-1.24A.31.31,0,0,0,646.28,419.94Z" style="fill:#263238"></path><path d="M650.23,422.55c-5.6-1.55-12.57-1.54-17.12,1.54-.18.12,0,.35.22.32a87.25,87.25,0,0,1,16.84-1.23A.32.32,0,0,0,650.23,422.55Z" style="fill:#263238"></path><path d="M572.58,193.08s5.85,35.67,6.25,36.82c0,0,2.17,1,6.1,2.84,0,0,10.16,111.72,10.16,144.66,0,5.53,3.84,11.54,3.84,11.54l45.76.19s3.38-6.66,3.2-12.48c-1.38-46.31-25.37-183.57-25.37-183.57Z" style="fill:#455a64"></path><path d="M600.5,380.8c7-.11,5-.18,12-.22,3.43,0,25.91-.11,29.1.43a.07.07,0,0,1,0,.14c-3.2.52-25.68.23-29.1.18-7-.1-5-.15-12-.32A.11.11,0,0,1,600.5,380.8Z" style="fill:#263238"></path><path d="M576.93,228.79A84.42,84.42,0,0,1,590,235.65a.15.15,0,0,1-.14.27c-4.41-2.15-8.92-4.22-13.21-6.6A.3.3,0,0,1,576.93,228.79Z" style="fill:#263238"></path><path d="M578.61,208.36c.72,4.27,1.12,8.6,1.6,12.9.12,1,.24,2.07.35,3.1a5.94,5.94,0,0,0,.74,2.71c.93,1.44,2.59,2.12,4.1,2.77.17.08.1.36-.09.3a10,10,0,0,1-4.35-2.31c-1.37-1.45-1.33-3.65-1.54-5.51a122.78,122.78,0,0,1-1-13.94C578.42,208.27,578.59,208.25,578.61,208.36Z" style="fill:#263238"></path><path d="M583.8,209.67c.15,3.07.5,6.15.75,9.22.13,1.51.23,3,.33,4.54s.27,3.12.22,4.67c0,.1-.17.13-.19,0-.25-1.46-.28-3-.4-4.46s-.24-3.11-.32-4.66c-.18-3.11-.26-6.24-.54-9.34C583.64,209.57,583.8,209.57,583.8,209.67Z" style="fill:#263238"></path><polygon points="585.86 237.31 588.32 258.25 590.87 279.17 596.14 320.99 603.48 376.65 597.11 320.87 591.61 279.07 588.79 258.19 585.86 237.31" style="fill:#263238"></polygon><path d="M585.75,144.36C566,168.34,551,181,543.27,179.16c-8.52-2-19.07-20.23-27.53-34.44-1.18-2,24.92-15.91,26.18-13.64,5.05,9.12,7.47,17.67,10.15,19.25,1.74,1,9.64-4.88,25.26-13.47C591.28,129.19,594.53,133.68,585.75,144.36Z" style="fill:#ad6359"></path><path d="M516.68,146.12c-2.34-2.78-10.17-14-13.1-23.14-1.42-4.43-4.16-17.59-.84-18.94s4.46,2.42,4.46,2.42-.33-5.73,3.14-6.79,5,4.88,5,4.88.1-5.91,3.63-6.72,4.12,5.42,4.12,5.42-.17-5.41,3-4.85c3.84.67,3,10.68,4.83,15.5.42,1.09,9.95,21.59,9.95,21.59Z" style="fill:#ad6359"></path><path d="M523.2,103.33c-.59,7.36.43,10.68,3.81,17.11.06.13-.11.25-.19.13-3.88-6-5.76-10-4-17.29C522.93,102.92,523.23,103,523.2,103.33Z" style="fill:#263238"></path><path d="M515.31,104.24c.06,7.7,1.12,11.31,4.17,18.31,0,.1-.12.18-.18.09C515.75,116,514,112,514.92,104.31,515,104,515.31,103.89,515.31,104.24Z" style="fill:#263238"></path><path d="M507.24,107.09c.59,7.45,1.59,11.46,5.41,17.88a.13.13,0,1,1-.22.15c-4.54-6.16-5.83-11.16-5.42-18C507,106.67,507.2,106.63,507.24,107.09Z" style="fill:#263238"></path><path d="M540.47,135.47s3.08-8.72,3.58-12.85-3.28-20.22-6.8-19.6c-4.55.8-4.19,10.52-3.39,15.25,0,0-10.52,1.85-11.77,8.88S540.47,135.47,540.47,135.47Z" style="fill:#ad6359"></path><path d="M536.07,103.65c-3.62,3.72-2.17,9.87-1.74,14.52a.43.43,0,0,1-.52.48c-4.35,1.07-10.19,3.84-11.89,8.26a.11.11,0,0,1-.21-.06c1.19-5,6.7-8.18,11.54-9-.51-4.77-1.69-11,2.79-14.19A0,0,0,1,1,536.07,103.65Z" style="fill:#263238"></path><path d="M570.77,165.23l-13-17.92s14.3-9.57,23.85-13.72,14.34-1.91,5.66,10.6A217.91,217.91,0,0,1,570.77,165.23Z" style="fill:#00573F"></path><path d="M587.25,144.19a218.92,218.92,0,0,1-16.48,21.05l-7.59-10.45-5.43-7.49s14.29-9.56,23.84-13.71c3.56-1.54,6.45-2.2,8.24-1.77C592.84,132.54,592.7,136.34,587.25,144.19Z" style="fill:#00573F"></path><path d="M561.54,146.1q3.09,3.51,6,7.18c1,1.2,1.94,2.39,2.87,3.61s1.84,2.6,2.81,3.86c.07.09-.06.2-.13.12-1-1.19-2-2.3-3-3.48s-2-2.48-3-3.71q-2.93-3.68-5.67-7.49C561.38,146.12,561.48,146,561.54,146.1Z" style="fill:#263238"></path><path d="M587.25,144.19a218.92,218.92,0,0,1-16.48,21.05l-7.59-10.45c9.06-7.86,22.14-19.19,26.65-23C592.84,132.54,592.7,136.34,587.25,144.19Z" style="opacity:0.1"></path><path d="M564.06,211.42c1,1.07,62.9,3.1,63.22,2.71.88-1.09-6.9-41.4-13.37-56.85-8.29-19.8-13-21.62-15.88-22.82-3.62-1.54-13.19-3.65-17.76,4.25C568.49,159.07,563.2,210.49,564.06,211.42Z" style="fill:#00573F"></path><path d="M601.86,136.77,582.37,136a8.15,8.15,0,0,1,.63-.56l18.12.68A9.51,9.51,0,0,1,601.86,136.77Zm2.7,2.92-24.33-.91c-.11.19-.22.38-.32.57l25.11.94Zm2.38,3.49-28.45-1.07-.27.58,29.09,1.08C607.19,143.56,607.07,143.37,606.94,143.18Zm2,3.46L577,145.45c-.08.19-.16.39-.23.58l32.46,1.21Zm1.76,3.48-35-1.31c-.07.18-.13.37-.21.57L611,150.71C610.89,150.51,610.79,150.31,610.7,150.12Zm1.61,3.45-37.74-1.41c-.07.19-.13.38-.19.58l38.19,1.42C612.48,154,612.39,153.77,612.31,153.57Zm1.6,3.71-.11-.26-40.28-1.5c-.06.19-.12.38-.17.57l40.7,1.52Zm1.23,3.2-42.59-1.59c-.06.19-.11.38-.16.57l43,1.6C615.28,160.87,615.22,160.67,615.14,160.48Zm1.17,3.43-44.66-1.66c0,.19-.09.38-.14.57l45,1.68C616.44,164.3,616.37,164.1,616.31,163.91Zm1.07,3.44-46.55-1.73c-.05.2-.1.39-.14.58l46.86,1.74C617.49,167.74,617.44,167.54,617.38,167.35Zm1,3.44L570.05,169c0,.19-.09.38-.13.57l48.62,1.82C618.48,171.18,618.43,171,618.38,170.79Zm.93,3.43-50-1.86a5.78,5.78,0,0,0-.12.57l50.25,1.88Zm.89,3.44-51.56-1.93c0,.19-.07.39-.11.58l51.82,1.93Zm.85,3.42-53-2c0,.19-.07.38-.1.57l53.3,2Zm.81,3.43-54.45-2c0,.19-.07.38-.1.57l54.69,2C622,184.9,621.91,184.7,621.86,184.51Zm.79,3.43-55.82-2.08-.09.58,56,2.09C622.74,188.33,622.7,188.14,622.65,187.94Zm.77,3.43-57.11-2.13-.09.57L623.54,192C623.5,191.75,623.45,191.56,623.42,191.37Zm.72,3.42-58.33-2.17c0,.2,0,.39-.09.58l58.54,2.18Zm.7,3.43L565.35,196c0,.2-.05.39-.08.58L625,198.8Zm.67,3.42-60.58-2.26c0,.2,0,.39-.07.58l60.76,2.26C625.59,202,625.55,201.84,625.51,201.64Zm.63,3.43-61.59-2.3-.06.58,61.75,2.3C626.21,205.46,626.18,205.27,626.14,205.07Zm.59,3.41-62.51-2.33c0,.2,0,.4-.05.58l62.65,2.34Zm.48,3.42L564,209.54c0,.21,0,.41,0,.58l63.3,2.36C627.26,212.3,627.24,212.11,627.21,211.9Z" style="fill:#030402;opacity:0.1"></path><path d="M584.46,143.7c3.4,1.18,9.91-3.53,12.71-7.6.19-.28.06-3.44.07-7.29,0-2.34.1-4.94.34-7.31,0-.48-15.22,2.1-15.22,2.1a37.67,37.67,0,0,1,.51,9.24,5.62,5.62,0,0,1-.2,1s0,.1,0,.16C582.14,135.77,581.18,142.56,584.46,143.7Z" style="fill:#ad6359"></path><path d="M596.66,121.47c-1.1,3.94-4.57,13.35-12.51,12.73a8.09,8.09,0,0,1-1.51-.24.65.65,0,0,1,0-.16,5.43,5.43,0,0,0,.2-1,37.67,37.67,0,0,0-.51-9.24S593.38,121.73,596.66,121.47Z" style="fill:#263238"></path><path d="M600.54,104.63c.81,5.47-4.2,20.18-8.43,23-6.12,4.09-15,3.24-18.22-3.87-3.09-6.89,3.79-25.94,8.4-28.39C589.09,91.77,599.33,96.55,600.54,104.63Z" style="fill:#ad6359"></path><path d="M585,111.85s.07.07,0,.11c-.36,1-.62,2.17.17,2.8,0,0,0,.07,0,0C584.15,114.29,584.5,112.72,585,111.85Z" style="fill:#263238"></path><path d="M586.24,111.11c1.64.41.69,3.66-.83,3.27S584.87,110.76,586.24,111.11Z" style="fill:#263238"></path><path d="M579.23,110.15s-.09,0-.1.07c-.26,1-.73,2.13-1.74,2.2a0,0,0,0,0,0,.06C578.54,112.64,579.15,111.15,579.23,110.15Z" style="fill:#263238"></path><path d="M578.64,108.84c-1.58-.6-2.65,2.61-1.19,3.16S580,109.34,578.64,108.84Z" style="fill:#263238"></path><path d="M588,110a12.75,12.75,0,0,1-1.12-.81c-.43-.32-.81-.52-1-1a.7.7,0,0,1,.36-.79,1.75,1.75,0,0,1,1.76.32,2.61,2.61,0,0,1,1.13,1.5A.77.77,0,0,1,588,110Z" style="fill:#263238"></path><path d="M577.87,106.84a12.72,12.72,0,0,0,1.38,0,2.26,2.26,0,0,0,1.43-.22.71.71,0,0,0,.2-.85,1.78,1.78,0,0,0-1.6-.82,2.63,2.63,0,0,0-1.8.51A.76.76,0,0,0,577.87,106.84Z" style="fill:#263238"></path><path d="M582.79,121.36c-.31.16-.64.42-1,.34a2.67,2.67,0,0,1-1-.57,0,0,0,0,0-.06,0,1.41,1.41,0,0,0,1.12.92,1.11,1.11,0,0,0,1-.66C582.91,121.38,582.84,121.34,582.79,121.36Z" style="fill:#263238"></path><path d="M582.62,118a3.6,3.6,0,0,1-2.73.86,4.58,4.58,0,0,1-1.25-.31,1.12,1.12,0,0,1-.22-.09l-.22-.1a.27.27,0,0,1-.13-.29h0a.3.3,0,0,1,0-.1h0l0-.09c.21-.78.63-1.93.63-1.93-.33.06-2,.28-1.82-.11a53.45,53.45,0,0,1,4.36-10c.05-.1.22,0,.17.08-1,3.2-2.57,6.21-3.63,9.41a6.52,6.52,0,0,1,1.76,0c.1.07-.85,2.22-.92,2.58v0a4.94,4.94,0,0,0,3.86-.07C582.64,117.89,582.7,118,582.62,118Z" style="fill:#263238"></path><path d="M599,117.41c.6-1.31,6.5-15.55,6.37-17.23-.12-1.52-1.83-1.18-1.84-1.27s.16-1.43-.59-2.06a2.28,2.28,0,0,0-1.8-.26s0-1.45-.86-2a1.82,1.82,0,0,0-1.8.09,2.38,2.38,0,0,0-1.15-1.91,1.55,1.55,0,0,0-1.81.38s-.17-1.4-1-1.81-1.85.46-1.85.46-.31-1.31-1.43-1.5a1.8,1.8,0,0,0-1.76,1S589,90,587.9,89.8s-1.63,1.06-1.63,1.06S586,89.62,585,89.54s-1.46,1.27-1.46,1.27-.35-1.38-1.58-1.19c-1.89.3-3.48,8.85-4.49,12.51,0,0,.79-1.7,1.56-1.65s1.15,1.36,2.52,1.9c2,.77,5.7-1.07,8.4,0s4.18,4.19,4.48,8.6C594.79,115.93,597.57,120.53,599,117.41Z" style="fill:#263238"></path><path d="M584,117.44a4.36,4.36,0,0,1-2.33-5.7h0a4.35,4.35,0,1,1,3.38,6A4.57,4.57,0,0,1,584,117.44Zm-1.8-5.48a3.74,3.74,0,1,0,4-2.28A3.78,3.78,0,0,0,582.18,112Z" style="fill:#00573F"></path><path d="M575.11,115c-1.73-.47-2.62-2.74-2-5.06a5.3,5.3,0,0,1,1.68-2.7,2.72,2.72,0,0,1,4.49,1.21,5.27,5.27,0,0,1,.1,3.18c-.6,2.2-2.34,3.67-4,3.42Zm0-7.3a4.62,4.62,0,0,0-1.49,2.4c-.54,2,.17,3.95,1.59,4.33s3-.94,3.55-3a4.65,4.65,0,0,0-.07-2.82,2.35,2.35,0,0,0-1.51-1.52l-.22,0A2.39,2.39,0,0,0,575.16,107.72Z" style="fill:#00573F"></path><path d="M581.65,112.26l.48-.33c-.49-.71-1.77-1.83-3.1-1l.31.49C580.53,110.68,581.61,112.2,581.65,112.26Z" style="fill:#00573F"></path><path d="M600.11,118.4l.56-.12c0-.26-.59-2.61-1.79-3.15s-8.86-1.83-9.18-1.89l-.1.57c2.21.38,8.17,1.46,9,1.85S600,117.76,600.11,118.4Z" style="fill:#00573F"></path><path d="M595.47,116.47s4.23-4.29,6.24-2.7-1.76,8.22-4.52,8.75a2.67,2.67,0,0,1-3.29-2Z" style="fill:#ad6359"></path><path d="M600.58,115.64s0,.06,0,.07c-2,.43-3.2,2-4.16,3.59a1.48,1.48,0,0,1,2.25,0s0,.1-.07.08a1.65,1.65,0,0,0-1.88.27,7.7,7.7,0,0,0-1.11,1.3c-.11.15-.39,0-.29-.17l0,0C595.7,118.4,598.05,115.45,600.58,115.64Z" style="fill:#263238"></path><path d="M603.92,137.32c.94-.79-4.35-3.65-5.89-2.86S589.52,148.56,589,166s33.75,37.27,35.52,34.94a5.25,5.25,0,0,0,0-4.7c-1-1.56-26-16.62-26.87-27.64C596.86,158.81,599.87,140.71,603.92,137.32Z" style="fill:#263238"></path><rect x="523.11" y="94.19" width="24.23" height="16.84" transform="translate(58.93 -162.22) rotate(18.22)" style="fill:#c7c7c7"></rect><polygon points="520.23 109.42 511.73 106.62 518.25 85.07 527.45 87.49 520.23 109.42" style="fill:#a6a6a6"></polygon><polygon points="557.88 126.42 539.46 120.35 550.95 90.62 567.1 95.94 557.88 126.42" style="fill:#a6a6a6"></polygon><polygon points="558 92.94 559.99 90.35 564.35 91.78 564.97 95.24 558 92.94" style="fill:#a6a6a6"></polygon><path d="M599.61,157.55C578.1,181.28,567.9,191,560.84,189.9c-10.83-1.72-19.91-29.85-24.12-42.59-.63-1.92,23.65-17,24.42-14.86,4,11.05,7.37,29.09,9,29.34s12.79-9.83,27-18.2C609.12,136.52,608.39,147.87,599.61,157.55Z" style="fill:#ad6359"></path><path d="M527.08,105.53c-2,2.54,4.67,7,4.67,7a6,6,0,0,0-4,1c-2,1.5-.46,5.25-.46,5.25a7.45,7.45,0,0,0-4,1.77c-1.73,1.63-.75,5.62-.75,5.62a6.48,6.48,0,0,0-2.53,3.77c-.81,4.09,3.85,8.46,6.78,11.26s13.88,8,15.87,9.22L561,128.55s-9.72-13-13.63-15.8C544.06,110.38,530.19,101.64,527.08,105.53Z" style="fill:#ad6359"></path><path d="M531.86,112.53c4.11,1.67,7.81,4.33,11.36,6.93.08.06,0,.18-.09.12-3.5-2.63-7.78-4.38-11.38-6.87C531.66,112.65,531.75,112.48,531.86,112.53Z" style="fill:#263238"></path><path d="M527.63,118.67a12.11,12.11,0,0,1,2.47,1.74c.83.68,1.65,1.37,2.46,2.08,1.62,1.4,3.21,2.85,4.75,4.34.07.07,0,.19-.09.12-1.61-1.4-3.25-2.78-4.93-4.11l-2.53-2a13.48,13.48,0,0,1-2.31-2A.16.16,0,0,1,527.63,118.67Z" style="fill:#263238"></path><path d="M522.65,126.31a8.24,8.24,0,0,1,2.14,1.68c.72.66,1.45,1.32,2.18,2,1.47,1.3,2.93,2.6,4.44,3.84.08.07,0,.19-.09.13-1.54-1.26-3.09-2.5-4.62-3.77-.75-.63-1.5-1.25-2.24-1.89a7.15,7.15,0,0,1-1.88-1.88S522.6,126.29,522.65,126.31Z" style="fill:#263238"></path><path d="M552.44,118.73c1.68.54,4.5-3.23,5.73-5.88s5.19-5.74,7.4-4.93.54,6.13-.72,9.39-4.18,14-3.64,15.94-7,3.33-7,3.33Z" style="fill:#ad6359"></path><path d="M566.57,151.88a63.42,63.42,0,0,1,3.32,9.67l.49-.15a6.94,6.94,0,0,0,.8-.3,12.58,12.58,0,0,0,1.49-.8c.09-.05.2.11.1.17a14.22,14.22,0,0,1-1.46,1,3.14,3.14,0,0,1-1.34.42c1.06,4,1.84,8.18,2.57,12.28a.1.1,0,0,1-.19,0c-.75-3.77-1.78-7.5-2.77-11.21s-2.15-7.36-3.09-11.07C566.48,151.86,566.55,151.84,566.57,151.88Z" style="fill:#263238"></path><path d="M520,131.33c3.43,10.2,16.89,15.7,16.93,15.81.89,2.18,1.51,4.5,2.3,6.72s1.6,4.47,2.43,6.69,1.66,4.34,2.52,6.5,3.49,8.45,4.56,10.61c.06.11-.13.2-.18.08-.92-2.23-3.88-8.25-4.84-10.47s-1.85-4.37-2.7-6.59-1.67-4.44-2.42-6.69a66,66,0,0,1-2.08-6.53s-15-5.81-16.61-16.08C519.86,131.33,519.94,131.28,520,131.33Z" style="fill:#263238"></path><path d="M520.25,128.38a7.64,7.64,0,0,1,2.07-2.35h0a8.28,8.28,0,0,1-.34-1.3,7.19,7.19,0,0,1,0-1.31,5,5,0,0,1,.86-2.47,6.29,6.29,0,0,1,4.33-2.4,6.91,6.91,0,0,1-.53-2.41,3.5,3.5,0,0,1,.52-2.28,3.55,3.55,0,0,1,1.74-1.26,5.2,5.2,0,0,1,1.29-.27,3.13,3.13,0,0,1,1.22,0,.06.06,0,0,1,0,.12,5.2,5.2,0,0,1-1,.12,5.62,5.62,0,0,0-1.2.27,3.33,3.33,0,0,0-1.67,1.21,3.59,3.59,0,0,0-.47,2.16,10.07,10.07,0,0,0,.42,2.42c0,.07,0,.12-.12.11a.12.12,0,0,1-.09.06,6,6,0,0,0-4,2.4,5.29,5.29,0,0,0-.71,2.29,9.37,9.37,0,0,0,0,1.3,11.3,11.3,0,0,0,.1,1.42,7.35,7.35,0,0,0-1.84,2.23,6.09,6.09,0,0,0-.75,3.12c0,.11,0,.05-.08,0A4.13,4.13,0,0,1,520.25,128.38Z" style="fill:#263238"></path><path d="M587.78,174.28l-13.19-17.81s14.21-9.69,23.72-13.93,12.71.29,4.15,12.88S587.78,174.28,587.78,174.28Z" style="fill:#00573F"></path><path d="M578.37,155.23q3.12,3.48,6.07,7.12c1,1.19,2,2.38,2.9,3.59s1.87,2.58,2.85,3.83c.07.09-.06.21-.13.12-1-1.18-2.06-2.28-3.06-3.45s-2-2.46-3-3.69q-3-3.65-5.73-7.43A.07.07,0,1,1,578.37,155.23Z" style="fill:#263238"></path><path d="M586.14,172.07c.09.07,1.64,2.18,1.67,2.22,1.92-2.62,4.16-5,6.22-7.47s4.15-5.1,6.13-7.72c0-.06.15,0,.1.07-.92,1.35-1.8,2.73-2.77,4.06-.47.66-1,1.3-1.48,1.94.25-.21.49-.43.74-.63a28.48,28.48,0,0,1,2.39-1.68s.08,0,.05.07a28.66,28.66,0,0,1-2.21,1.92c-.56.44-1.14.84-1.71,1.25l-.89,1.11a56.36,56.36,0,0,1-6.62,7.6s-1.67-2.54-1.71-2.66S586.09,172,586.14,172.07Z" style="fill:#263238"></path><path d="M575.94,158.08c-.07-.1-.52-1.34-.55-1.38,2.09-1.62,5-3.5,7.65-5.33s5.45-3.68,8.23-5.42c.07,0,0-.15,0-.11-1.44.8-2.89,1.56-4.29,2.4-.7.42-1.39.86-2.07,1.31.23-.23.47-.45.69-.69a26.82,26.82,0,0,0,1.89-2.23s0-.08-.07,0c-.73.64-1.44,1.32-2.11,2-.48.52-.93,1.06-1.39,1.59l-1.18.79c-2.72,1.78-5.84,3.5-8.1,5.48,0,0,1.15,1.66,1.26,1.71A.07.07,0,0,0,575.94,158.08Z" style="fill:#263238"></path></g><g id="freepik--character-2--inject-84"><path d="M313.14,446.76c1.64.53,48.56-.09,50.34-1.25.67-.43,1-7.27,1.12-15.54,0-1.79,0-3.64.06-5.51l2.91-25.08-31.38.33-2.06,25.07.22,5.5s-17.86,8.27-19.67,9.75S311.49,446.24,313.14,446.76Z" style="fill:#d3766a"></path><path d="M313.14,446.76c1.64.53,48.56-.09,50.34-1.25.82-.53,1.1-10.51,1.18-21.05l-30.53.32.22,5.5s-17.86,8.27-19.67,9.75S311.49,446.24,313.14,446.76Z" style="fill:#fff"></path><path d="M313.14,446.76c1.64.53,48.56-.09,50.34-1.25.67-.43,1-7.27,1.12-15.54l-30.25.31s-17.86,8.27-19.67,9.75S311.49,446.24,313.14,446.76Z" style="fill:#00573F"></path><path d="M351.07,446.44c6.75-.25,11.84-.56,12.41-.93s.94-6.46,1.09-14.05C361.28,435.35,354.82,442.38,351.07,446.44Z" style="opacity:0.1"></path><path d="M313.78,444.88c7.87-.3,39.61-.76,47.4-.45.07,0,.07,0,0,.05-7.78.46-39.53.66-47.39.53C313.62,445,313.62,444.89,313.78,444.88Z" style="fill:#263238"></path><path d="M317.67,438.3a6.3,6.3,0,0,1,4.73,1.86,6.09,6.09,0,0,1,1.82,4.18s-.09,0-.1,0a7.29,7.29,0,0,0-6.44-5.94A.05.05,0,0,1,317.67,438.3Z" style="fill:#263238"></path><path d="M331.31,431.1c3.14-.08,6.81,1,8.8,3.53.07.1-.07.21-.16.16a43.68,43.68,0,0,0-8.69-3.3A.2.2,0,0,1,331.31,431.1Z" style="fill:#263238"></path><path d="M328.89,432.08c3.15-.08,6.81,1,8.8,3.53.08.1-.06.21-.16.16a43.22,43.22,0,0,0-8.69-3.3A.2.2,0,0,1,328.89,432.08Z" style="fill:#263238"></path><path d="M326.47,433.06c3.15-.08,6.81,1,8.8,3.53.08.1-.06.21-.16.16a43.22,43.22,0,0,0-8.69-3.3A.2.2,0,0,1,326.47,433.06Z" style="fill:#263238"></path><path d="M324.05,434c3.15-.08,6.81,1,8.8,3.53.08.1-.06.21-.15.16a43.54,43.54,0,0,0-8.7-3.3A.2.2,0,0,1,324.05,434Z" style="fill:#263238"></path><path d="M359.08,437c3.53,0,3.59,5.45.06,5.49S355.54,437,359.08,437Z" style="fill:#263238"></path><path d="M328.1,427.36c1.73,2.17,4.34,3.51,6.6,5a.38.38,0,0,0,.56-.26c.06,0,.11,0,.1-.09a16.51,16.51,0,0,0-3-8c-1-1.36-3-2.62-4.6-1.28S327.1,426.09,328.1,427.36Zm-.18-2.61c.27-3.43,3.4-.84,4.09.2a17.34,17.34,0,0,1,1.18,2.1c.74,1.51,1.25,3.08,1.84,4.64-1.07-.81-2.19-1.53-3.29-2.3C330.44,428.46,327.78,426.64,327.92,424.75Z" style="fill:#263238"></path><path d="M346.51,429.89c-.27-2.06-2.62-2.47-4.28-2.13a16.55,16.55,0,0,0-7.56,4c-.05,0,0,.1,0,.14a.39.39,0,0,0,.25.57c2.69.38,5.53,1.12,8.27.66C344.79,432.84,346.77,431.83,346.51,429.89Zm-7.37,2.29c-1.34-.16-2.65-.38-4-.48a48.89,48.89,0,0,1,4.47-2.22,17,17,0,0,1,2.28-.78c1.21-.3,5.27-.14,3.17,2.59C343.92,432.79,340.72,432.37,339.14,432.18Z" style="fill:#263238"></path><path d="M367.36,411.7H334s1.14-37.54,3.77-53.8c2.73-16.82,16.06-67.3,16.06-67.3h33.76s-14.84,51.89-17,69.19C368.55,375.57,367.36,411.7,367.36,411.7Z" style="fill:#455a64"></path><path d="M335.39,405.82c4.88-.29,9.78-.36,14.67-.34,2.42,0,4.85,0,7.27,0s4.93.19,7.4.3a.07.07,0,0,1,0,.14c-2.47.12-4.92.29-7.39.33s-4.85.06-7.28.07c-4.88,0-9.79,0-14.67-.3A.13.13,0,0,1,335.39,405.82Z" style="fill:#263238"></path><path d="M363.93,363.77c.8-7.65,2.73-15.06,4.58-22.51s3.77-15.09,5.66-22.64S378,303.54,379.94,296l.73-2.83c0-.14.24-.07.21.07q-5.44,22.71-11,45.38c-1.83,7.42-3.95,14.83-4.91,22.43s-1.62,34.26-1.89,43a.08.08,0,0,1-.15,0C362.73,396.24,363.13,371.41,363.93,363.77Z" style="fill:#263238"></path><path d="M355.89,446.72c1.65.52,48.57-.1,50.34-1.25.68-.44,1-7.28,1.12-15.55,0-1.79,0-3.63.06-5.51.08-12.16-1.19-25.07-1.19-25.07l-30.1.32.77,25.07.21,5.5s-17.86,8.28-19.67,9.75S354.25,446.19,355.89,446.72Z" style="fill:#d3766a"></path><path d="M355.89,446.72c1.65.52,48.57-.1,50.34-1.25.82-.54,1.11-10.52,1.18-21.06l-30.52.32.21,5.5s-17.86,8.28-19.67,9.75S354.25,446.19,355.89,446.72Z" style="fill:#fff"></path><path d="M355.89,446.72c1.65.52,48.57-.1,50.34-1.25.68-.44,1-7.28,1.12-15.55l-30.25.31s-17.86,8.28-19.67,9.75S354.25,446.19,355.89,446.72Z" style="fill:#00573F"></path><path d="M356.54,444.83c7.86-.3,39.6-.76,47.4-.45.06,0,.06,0,0,.05-7.79.46-39.53.66-47.4.53C356.38,445,356.37,444.84,356.54,444.83Z" style="fill:#263238"></path><path d="M360.43,438.25a6.31,6.31,0,0,1,4.73,1.86,6.12,6.12,0,0,1,1.81,4.18s-.08,0-.09,0a7.31,7.31,0,0,0-6.45-5.94C360.37,438.35,360.37,438.26,360.43,438.25Z" style="fill:#263238"></path><path d="M374.06,431.06c3.15-.09,6.81,1,8.8,3.52.08.1-.06.21-.16.16a43.83,43.83,0,0,0-8.69-3.3A.19.19,0,0,1,374.06,431.06Z" style="fill:#263238"></path><path d="M371.64,432c3.15-.09,6.82,1,8.81,3.52.07.1-.07.21-.16.16a44.15,44.15,0,0,0-8.7-3.3A.19.19,0,0,1,371.64,432Z" style="fill:#263238"></path><path d="M369.23,433c3.14-.09,6.81,1,8.8,3.52.08.1-.07.21-.16.16a43.68,43.68,0,0,0-8.69-3.3A.19.19,0,0,1,369.23,433Z" style="fill:#263238"></path><path d="M366.81,434c3.15-.09,6.81,1,8.8,3.52.08.1-.06.21-.16.16a43.22,43.22,0,0,0-8.69-3.3A.19.19,0,0,1,366.81,434Z" style="fill:#263238"></path><path d="M401.83,436.93c3.54,0,3.6,5.46.06,5.49S398.3,437,401.83,436.93Z" style="fill:#263238"></path><path d="M370.86,427.31c1.73,2.17,4.33,3.52,6.6,5a.39.39,0,0,0,.56-.26.09.09,0,0,0,.1-.1,16.61,16.61,0,0,0-3-8c-1-1.36-3-2.62-4.6-1.28S369.85,426.05,370.86,427.31Zm-.18-2.6c.27-3.43,3.39-.84,4.09.19A18.09,18.09,0,0,1,376,427a48.57,48.57,0,0,1,1.83,4.64c-1.06-.82-2.19-1.53-3.28-2.31C373.19,428.42,370.53,426.6,370.68,424.71Z" style="fill:#263238"></path><path d="M389.27,429.84c-.28-2-2.63-2.47-4.28-2.13a16.52,16.52,0,0,0-7.56,4,.08.08,0,0,0,0,.13.38.38,0,0,0,.24.57c2.7.38,5.54,1.12,8.27.67C387.55,432.79,389.53,431.78,389.27,429.84Zm-7.38,2.29c-1.33-.15-2.65-.37-4-.48a48.72,48.72,0,0,1,4.46-2.22,17.16,17.16,0,0,1,2.29-.78c1.21-.3,5.26-.14,3.17,2.59C386.68,432.74,383.48,432.32,381.89,432.13Z" style="fill:#263238"></path><path d="M408.63,413.87H373.54s-1.07-29.91-2.31-42.79c-1.31-13.69-3.41-56.5-3.41-56.5L364,313.36c-4.8-3-9.66-18.49-10.21-22.76h44.56s6.5,18.56,3,30c0,0,3.14,40.34,3.87,47.57C406.61,381.8,408.63,413.87,408.63,413.87Z" style="fill:#455a64"></path><path d="M363,312.76a76.06,76.06,0,0,1,10.38,3.72c.13,0,0,.21-.1.16-3.5-1.15-7.06-2.26-10.47-3.56C362.49,313,362.67,312.68,363,312.76Z" style="fill:#263238"></path><path d="M361.84,294.28c0-.09.22-.11.22,0a68.94,68.94,0,0,0,.58,9c.17,1.39,1.61,9.05,4.74,8.5.52-.1.79-.49.87-1.1a7.42,7.42,0,0,0-.42-2.35c-.34-1.61-.62-3.22-.8-4.84a33.94,33.94,0,0,1,.13-9.06c0-.1.2-.1.2,0a64.19,64.19,0,0,0,.95,12.52c.39,2,1.7,5-1,5.3s-4.54-4.71-4.88-6.09A35.3,35.3,0,0,1,361.84,294.28Z" style="fill:#263238"></path><path d="M367.29,312a11.21,11.21,0,0,1,.71,1.59,2.9,2.9,0,0,1,.29,1.31c0,.08-.16.09-.22,0a4.12,4.12,0,0,1-.72-1.27c-.24-.49-.49-1-.71-1.47C366.49,311.82,367.12,311.65,367.29,312Z" style="fill:#263238"></path><path d="M375.21,408.45c4.88-.3,9.78-.36,14.67-.35,2.42,0,4.85,0,7.28,0s4.92.2,7.39.3a.08.08,0,0,1,0,.15c-2.47.11-4.92.28-7.39.32s-4.85.06-7.28.08c-4.88,0-9.79,0-14.66-.3A.13.13,0,0,1,375.21,408.45Z" style="fill:#263238"></path><path d="M367.87,315.32c.95,11.66,1.65,23.32,2.23,35,.16,3.3.16,6.6.3,9.89,0,.1-.14.09-.15,0-.21-2.92-.53-5.83-.75-8.75s-.41-5.83-.58-8.75c-.34-5.83-.73-11.66-.93-17.49-.11-3.3-.26-6.59-.36-9.89C367.62,315.16,367.86,315.17,367.87,315.32Z" style="fill:#263238"></path><path d="M381.07,293.09a48.44,48.44,0,0,0,1.24,5.43c.45,1.58.94,3.18,2.39,4.12a17.91,17.91,0,0,0,9.88,2.48.06.06,0,0,1,0,.12,16.26,16.26,0,0,1-5.48,0,12.85,12.85,0,0,1-5.12-1.82,6.69,6.69,0,0,1-2.4-4.27,27.44,27.44,0,0,1-.68-6.05C380.91,293,381.06,293,381.07,293.09Z" style="fill:#263238"></path><path d="M394.5,293.71a.16.16,0,0,1,.3-.08c1.83,7.18,3.66,14.58,2.78,22-.22,1.84-.68,3.6-1,5.4a20.78,20.78,0,0,0-.17,5.84c.33,3.89.69,7.78,1,11.67,1.36,15.5,2.76,31,4.05,46.51.72,8.72,1.33,12.57,1.91,21.3,0,.14-.19.13-.21,0-1.68-15.48-2.79-26.14-4.13-41.65l-2-23.14q-.51-5.85-1-11.69c-.17-1.91-.4-3.84-.4-5.76a23.82,23.82,0,0,1,.81-5.25C398.36,310.51,396.38,301.9,394.5,293.71Z" style="fill:#263238"></path><path d="M368.84,249.87c-4.62,5.86-21.55,24.7-31.69,26.69-6.83,1.34-22.41-6.6-30.56-15.84-1-1.11,13.11-17.32,14-16.55,3.62,3.15,15.91,13.45,18,13.32S355.27,249,363,245.37C368.93,242.55,371.44,246.56,368.84,249.87Z" style="fill:#d3766a"></path><path d="M296.34,252.23c2.62,4,11.17,10.12,13.8,10.8s13.5-13.51,12.79-16.2-10.56-15.52-15.2-17.05S293.64,248.07,296.34,252.23Z" style="fill:#d3766a"></path><path d="M314.4,233.57c.08,2.53-2.95,1.18-2.95,1.18s3.9,3,3,5.64-4.5.79-4.76.67c.2.16,3.71,3,2.51,5.57s-4.57.27-4.78.12c.15.21,2,3.05.67,4.79-2.33,3-7.34-4.13-10.39-4.53,0,0-1.26,5.08-1.33,5.22s-4.91-6.68-4.14-10.76a2.65,2.65,0,0,1,2.49-2.19s-1.83-2-.94-4c.45-1.05,2.54-1.25,2.54-1.25a3.34,3.34,0,0,1-.5-3.42,3.21,3.21,0,0,1,2.7-1.41s-.61-2.2.59-3.41C301.49,223.31,314.21,228.14,314.4,233.57Z" style="fill:#d3766a"></path><path d="M298.8,229.13s0-.08,0-.07a23.55,23.55,0,0,1,12.81,5.75c.11.1,0,.33-.16.23A48.42,48.42,0,0,0,298.8,229.13Z" style="fill:#263238"></path><path d="M296.23,234c-.05,0,0-.1,0-.1A22.1,22.1,0,0,1,309.84,241c.12.14.09.39-.06.24C307.26,238.68,300.46,235.15,296.23,234Z" style="fill:#263238"></path><path d="M307.53,247.12c-3.48-3.8-7.84-6.11-12.65-7.83-.06,0,0-.11,0-.1,2.58.2,5.53,1.62,7.74,2.91a13.69,13.69,0,0,1,5,4.9C307.72,247.08,307.61,247.2,307.53,247.12Z" style="fill:#263238"></path><path d="M311.45,234.75a15.74,15.74,0,0,1,1.89,2.11,5.18,5.18,0,0,1,1.1,2.48,1.69,1.69,0,0,1-.33,1.18,2.51,2.51,0,0,1-1,.78,3,3,0,0,1-2.45-.23l-1.86-.93,1.42,1.52a8.38,8.38,0,0,1,1.54,2.29,3,3,0,0,1,.17,2.48,1.74,1.74,0,0,1-1.89,1.1,5.3,5.3,0,0,1-2.4-1.1l-2-1.48,1.36,2a7.82,7.82,0,0,1,.91,1.83,3.19,3.19,0,0,1,.16,1.89,1.55,1.55,0,0,1-1.19,1.14,3.42,3.42,0,0,1-1.89-.43,27.67,27.67,0,0,1-3.59-2.31c-.59-.42-1.18-.83-1.8-1.22a5,5,0,0,0-2-.87,5.45,5.45,0,0,1,1.87,1c.58.43,1.13.89,1.68,1.35a23.86,23.86,0,0,0,3.55,2.55,4.09,4.09,0,0,0,2.25.59,2.24,2.24,0,0,0,1.83-1.61,4,4,0,0,0-.14-2.36,8.71,8.71,0,0,0-1-2l-.6.55a6.09,6.09,0,0,0,2.82,1.32,2.56,2.56,0,0,0,1.67-.33,2.84,2.84,0,0,0,1.08-1.3,3.8,3.8,0,0,0-.21-3.14,9.17,9.17,0,0,0-1.74-2.48l-.44.59a3.64,3.64,0,0,0,3.06.11,3.12,3.12,0,0,0,1.17-1,2.21,2.21,0,0,0,.35-1.53,5.43,5.43,0,0,0-1.35-2.59A12.86,12.86,0,0,0,311.45,234.75Z" style="fill:#263238"></path><path d="M321.63,244.35s-3.49-20-10.64-14.81c-2.12,1.55-9,10.42-7.25,11.84,2.27,1.83,5.83-1.34,7.75-3.69,0,0,.24,7,5.14,8.26A5,5,0,0,0,321.63,244.35Z" style="fill:#d3766a"></path><path d="M311.61,229.15a10.63,10.63,0,0,0-2.45,1.89,23.88,23.88,0,0,0-2.06,2.32,35.94,35.94,0,0,0-3.46,5.18,5.59,5.59,0,0,0-.57,1.55,2,2,0,0,0,0,.94,1.59,1.59,0,0,0,.2.48,1.57,1.57,0,0,0,.34.38,2.61,2.61,0,0,0,1.73.55A5,5,0,0,0,307,242a9.45,9.45,0,0,0,2.64-1.81,20.18,20.18,0,0,0,2.13-2.31l-.63-.22a13,13,0,0,0,.38,2.35,11.84,11.84,0,0,0,.82,2.22,8.37,8.37,0,0,0,1.35,1.93,6.15,6.15,0,0,0,1.89,1.36,6.91,6.91,0,0,1-1.7-1.53,8.62,8.62,0,0,1-1.13-1.95,11,11,0,0,1-.65-2.16,12.28,12.28,0,0,1-.25-2.23v-.92l-.63.69a22.79,22.79,0,0,1-2.12,2.16,9.06,9.06,0,0,1-2.44,1.63,2.55,2.55,0,0,1-2.49,0c-.58-.4-.21-1.47.21-2.33a25.84,25.84,0,0,1,1.49-2.65c.53-.87,1.07-1.74,1.66-2.57A19.57,19.57,0,0,1,311.61,229.15Z" style="fill:#263238"></path><path d="M329.46,250.88l-16.41,17.93s17.16,12.21,25.48,9.25,22-16.06,28.87-24.74-.28-10.89-5.84-7.66-22.67,11-23.36,11S329.46,250.88,329.46,250.88Z" style="fill:#00573F"></path><path d="M318.05,272c1,.61,2.19,1.25,3.42,1.9l16-17.64c-.75-.43-2-1.23-3.24-2.09Z" style="fill:#fff"></path><path d="M318.76,271.11q3.28-4,6.75-7.91c1.14-1.27,2.27-2.56,3.43-3.81s2.5-2.5,3.7-3.8c.09-.09.24,0,.16.13-1.12,1.29-2.14,2.65-3.25,4s-2.34,2.64-3.52,3.95c-2.31,2.59-4.7,5.12-7.14,7.59C318.82,271.28,318.7,271.19,318.76,271.11Z" style="fill:#263238"></path><path d="M350.83,270.15a123.5,123.5,0,0,0,16.57-16.83c4.56-5.8,2.91-8.7-.35-9Z" style="opacity:0.1"></path><path d="M401,298.4c0,.05-48.68.3-49,0a41.39,41.39,0,0,1-.2-15.55c2.1-12.63,7.88-29.32,11.24-35.74,1.44-2.76,8.37-7.1,13.83-2.31,6.6,5.78,14.88,22.5,19.64,35.72A82.47,82.47,0,0,1,401,298.4Z" style="fill:#00573F"></path><polygon points="349.85 294.3 401.01 294.3 400.03 289.31 350.83 289.31 349.85 294.3" style="fill:#263238"></polygon><path d="M380.27,286.75c-1.73-1.34-29.55-1.26-30.75,0-1.57,1.57.05,14.33,1.2,14.77,2.24.85,25.89.72,27.73,0S382,288.07,380.27,286.75Z" style="fill:#37474f"></path><path d="M374.72,292.76a7.07,7.07,0,0,0-1.77-.31c-.6-.05-1.21-.08-1.81-.11-1.21-.06-2.41-.09-3.62-.11-2.41,0-4.83,0-7.24.08a68.72,68.72,0,0,0-7.2.52,3.94,3.94,0,0,0-.82.19c-.14,0-.22.33-.25.61a7.94,7.94,0,0,0,.05,1.75,15.06,15.06,0,0,0,.78,3.47,2.25,2.25,0,0,0,.36.68s.17,0,.29.06l.45,0,1.8.07,3.62.08,7.24.11h3.62l1.81,0,.9,0c.3,0,.62,0,.82-.25a4.31,4.31,0,0,0,.83-1.57,11.83,11.83,0,0,0,.45-1.75,10,10,0,0,0,.18-1.8,4.56,4.56,0,0,0-.08-.9A1.18,1.18,0,0,0,374.72,292.76Zm0,0a1.17,1.17,0,0,1,.42.78,5.38,5.38,0,0,1,.09.9,10.85,10.85,0,0,1-.16,1.8,11.59,11.59,0,0,1-.43,1.76,4.43,4.43,0,0,1-.84,1.61,1.24,1.24,0,0,1-.86.3l-.9.06-1.82.07-3.62.09q-3.62.06-7.25.06l-3.62,0-1.82-.06-.46,0c-.17,0-.32,0-.57-.16a2.6,2.6,0,0,1-.51-.88,16.06,16.06,0,0,1-.77-3.6,8.86,8.86,0,0,1,0-1.86,2.29,2.29,0,0,1,.11-.49.76.76,0,0,1,.4-.45,4.25,4.25,0,0,1,.94-.22,65.27,65.27,0,0,1,7.25-.34c2.42,0,4.84,0,7.25.09,1.21,0,2.42.07,3.62.14.6,0,1.21.08,1.81.14A6.66,6.66,0,0,1,374.72,292.76Z" style="fill:#263238"></path><rect x="352.98" y="294.29" width="19.75" height="0.88" transform="translate(725.71 589.47) rotate(180)" style="fill:#ebebeb"></rect><path d="M372.59,294.73c-3.22.11-6.45.08-9.68.13s-6.46,0-9.68-.13c3.22-.1,6.45-.08,9.68-.12S369.37,294.63,372.59,294.73Z" style="fill:#a6a6a6"></path><path d="M373.29,297.79l1.64-1.11-2.12-2.45-1,.7Zm-.38-3a.37.37,0,0,1-.1.52.38.38,0,1,1,.1-.52Zm.27,2.24c-.11-.17,0-.47.33-.68s.64-.22.75-.05,0,.47-.33.68S373.3,297.2,373.18,297Z" style="fill:#ebebeb"></path><path d="M380.92,289.84l1.64-1.11-2.12-2.45-1,.7Zm-.38-3a.39.39,0,0,1-.1.53.38.38,0,0,1-.53-.1.37.37,0,0,1,.1-.53A.38.38,0,0,1,380.54,286.83Zm.27,2.25c-.12-.17,0-.47.33-.68s.63-.22.75,0,0,.47-.33.67S380.92,289.25,380.81,289.08Z" style="fill:#ebebeb"></path><path d="M373,248.41c3.82,6.07,21.33,25.71,28,27.4,6.47,1.65,22.05-4,30.76-12,1.05-1-10.76-17.86-11.68-17.21-3.77,2.63-14.41,9.7-16.36,9.37s-16.61-8.73-26.08-12.47C371.79,241.15,370.85,245,373,248.41Z" style="fill:#d3766a"></path><path d="M414.7,251.7l7.71,8,0,0,.17.17,5.84,6a16,16,0,0,0,1.77-1h0a71.31,71.31,0,0,0,12.18-10.39c2.2-2.44,7.78-10.13,6-12s-3.58.27-3.58.27,1.87-3.6-.05-5.28c-1.58-1.38-3.7.62-4.42,1.39l-.12.13h0l-.12.14s1.65-3.84-.38-5.38c-1.83-1.37-3.77,1.55-4.16,2.18l-.05.08,0-.07c.26-.58,1.38-3.38-.6-3.89-2.66-.68-5,6-7.6,8.59-.13.13-.82.73-1.81,1.6L421.35,246Z" style="fill:#d3766a"></path><path d="M428.13,246.17a29.31,29.31,0,0,0,3.8-2.8,11.73,11.73,0,0,0,3.76-7.18c0-.15,0-.22-.09-.23h0c-.05,0-.09.06-.13.15a17.69,17.69,0,0,1-3.65,6.57A28.49,28.49,0,0,1,428,246,.08.08,0,0,0,428.13,246.17Z" style="fill:#263238"></path><path d="M432.37,249.69c4.21-3.24,6.53-5.31,8.14-10.54.05-.16,0-.29-.12-.27a.15.15,0,0,0-.11.11v0h0c-2.26,4.92-4,6.94-8,10.56C432.23,249.63,432.31,249.73,432.37,249.69Z" style="fill:#263238"></path><path d="M444.65,243.17c-2.54,4.63-4.34,6.92-8.67,10a.09.09,0,1,0,.1.16,17.51,17.51,0,0,0,8.71-10C444.9,243,444.81,242.88,444.65,243.17Z" style="fill:#263238"></path><path d="M423.72,257.93a5.06,5.06,0,0,0,.43-.7c0-.08.07-.15.1-.22v0c1.81-4-1.86-9.39-1.86-9.39a24.87,24.87,0,0,0,3.37-2.81c1.5-1.5,2.8-3.21,3-4.7,0,0,0,0,0,0a2.5,2.5,0,0,0-.08-1.16,1.89,1.89,0,0,0-.28-.57s0,0,0,0c-.73-.93-3.35-.06-6.09,1.34-3,1.55-6.17,3.75-7.12,4.94-1.23,1.54-3.78,9.24-3.78,9.24S420.8,262,423.72,257.93Z" style="fill:#d3766a"></path><path d="M428.69,239.26c-.1,3.66-3.92,6-6.48,8.05a.31.31,0,0,0,0,.5c1.62,2.73,3.1,7,1.71,10.09a.07.07,0,1,0,.13.07c1.94-3.06.83-7.42-1.13-10.29,2.66-2.1,6.39-4.58,5.79-8.42C428.72,239.23,428.69,239.23,428.69,239.26Z" style="fill:#263238"></path><path d="M411.24,252l10.22,21s-13.68,5-20.53,3.87S378,256.52,373.3,249.52s.84-8.25,5.42-5.92S402.7,255,403.53,255,411.24,252,411.24,252Z" style="fill:#00573F"></path><path d="M403.09,254.84l9.71,20.76c1.27-.32,2.49-.65,3.59-1l-9.7-20.73a18.61,18.61,0,0,1-3.15,1.07A2.25,2.25,0,0,1,403.09,254.84Z" style="fill:#fff"></path><path d="M415.75,273.56q-2.36-4.4-4.49-8.91c-.71-1.48-1.43-3-2.1-4.45s-1.29-3.14-2-4.69c0-.11.12-.2.17-.09.73,1.47,1.56,2.89,2.29,4.35s1.46,3.05,2.19,4.57q2.15,4.53,4.06,9.15A.07.07,0,1,1,415.75,273.56Z" style="fill:#263238"></path><path d="M377.45,255.28c2.95,3.15,5.86,6.34,8.83,9.47s6.13,6.11,9.16,9.2a.08.08,0,0,1-.11.12,100.75,100.75,0,0,1-9.59-8.89q-2.43-2.48-4.68-5.12c-.49-.36-1-.71-1.45-1.09s-1.06-.87-1.58-1.31c0,0,0-.06,0,0q.85.58,1.68,1.2c.28.21.55.43.82.65-1.11-1.33-2.2-2.68-3.23-4.09C377.28,255.31,377.39,255.22,377.45,255.28Z" style="fill:#263238"></path><path d="M374.68,245c-.25.75-4.41,5.36-7.89,4.84-1.14-.16-.49-6.4-.49-6.4l-.06-.48-.8-6.6,9.23-4.64S374.79,244.72,374.68,245Z" style="fill:#d3766a"></path><path d="M365.44,236.4l.8,6.6.06.48s-.12,1.13-.17,2.44a10.12,10.12,0,0,0,8.6-6c0-3.74-.06-8.17-.06-8.17Z" style="fill:#263238"></path><path d="M356.47,223.67c-4.39,13.56,3.24,17.72,6.16,18.66,2.66.85,11.8,3.43,17.57-9.6s.85-19.35-5.12-21.63S360.86,210.12,356.47,223.67Z" style="fill:#d3766a"></path><path d="M359.69,222.18a8.19,8.19,0,0,0,1,0,1.61,1.61,0,0,0,1-.15.51.51,0,0,0,.14-.6,1.24,1.24,0,0,0-1.13-.59,1.84,1.84,0,0,0-1.28.36A.54.54,0,0,0,359.69,222.18Z" style="fill:#263238"></path><path d="M368.45,224.77a9.06,9.06,0,0,1-.89-.42,1.62,1.62,0,0,1-.82-.61.51.51,0,0,1,.15-.6,1.25,1.25,0,0,1,1.28,0,1.82,1.82,0,0,1,1,.91A.54.54,0,0,1,368.45,224.77Z" style="fill:#263238"></path><path d="M367.11,226.28c1.52.35.7,3.38-.71,3.05S365.83,226,367.11,226.28Z" style="fill:#263238"></path><path d="M360.08,224.07c-1.5-.46-2.3,2.57-.91,3S361.34,224.45,360.08,224.07Z" style="fill:#263238"></path><path d="M363.93,234.34c-.27.18-.55.45-.91.41a2.52,2.52,0,0,1-1-.43,0,0,0,0,0-.05.05,1.32,1.32,0,0,0,1.12.74,1,1,0,0,0,.9-.71C364,234.35,364,234.31,363.93,234.34Z" style="fill:#263238"></path><path d="M360.82,230s-.54,1.36-.7,2c0,.06.14.13.36.2,0,0,0,0,0,0a3.23,3.23,0,0,0,3.35-.43c.06-.05,0-.14-.08-.11a4.85,4.85,0,0,1-3.08.12c0-.2,1-2.33.9-2.33-.46,0-1.29,0-1.6,0,.33-.89,1.39-3.38,2-5,0-.1-.11-.18-.16-.09a45,45,0,0,0-2.64,5.49C359.13,230,360.53,230,360.82,230Z" style="fill:#263238"></path><path d="M360.66,231.7a4,4,0,0,0,1.07,1.71,1.8,1.8,0,0,0,1,.44c.81.08,1.08-.59,1.16-1.22a4.46,4.46,0,0,0,0-1A5.13,5.13,0,0,1,360.66,231.7Z" style="fill:#263238"></path><path d="M361.73,233.41a1.8,1.8,0,0,0,1,.44c.81.08,1.08-.59,1.16-1.22A1.84,1.84,0,0,0,361.73,233.41Z" style="fill:#ff98b9"></path><path d="M380,233.2s5.54-8.76,5.13-13.9c-.18-2.32-3.31-3.94-3.31-3.94s-10.11-10.16-21.23-2.7c-1.32.89-4.57,3.72.84,6.3,5.26,2.52,16.17.35,16.17.35a37.64,37.64,0,0,0-.05,11.25A3.45,3.45,0,0,0,380,233.2Z" style="fill:#263238"></path><path d="M361.07,210.62c1.68.19,10.21,3.57,13.48,6.64s8.13,11.13,8.37,11.55,7.17-13.15-3.41-19.92C368,201.52,361.07,210.62,361.07,210.62Z" style="fill:#00573F"></path><path d="M382.47,228s-4-12.81-7.38-16.64-12.41-8.56-19.21-8.1c-5.3.36,3.73,10.28,3.73,10.28a3.38,3.38,0,0,1,2.58-1.56c3.27-.1,8.37,2.73,11.08,4.89C376.69,219.57,382.47,228,382.47,228Z" style="fill:#00573F"></path><path d="M382.47,228s-4-12.81-7.38-16.64-12.41-8.56-19.21-8.1c-5.3.36,3.73,10.28,3.73,10.28a3.38,3.38,0,0,1,2.58-1.56c3.27-.1,8.37,2.73,11.08,4.89C376.69,219.57,382.47,228,382.47,228Z" style="opacity:0.2"></path><path d="M377.71,233.07s4-3.63,5.74-2.1-2,7.29-4.51,7.62a2.41,2.41,0,0,1-2.86-2Z" style="fill:#d3766a"></path><path d="M382.34,232.6s0,.05,0,.06a6.06,6.06,0,0,0-3.92,3,1.33,1.33,0,0,1,2,.09s0,.1-.06.08a1.49,1.49,0,0,0-1.71.13,8,8,0,0,0-1.06,1.11c-.11.13-.35,0-.26-.16l0,0C377.81,234.81,380.08,232.29,382.34,232.6Z" style="fill:#263238"></path></g><g id="freepik--character-3--inject-84"><path d="M460,147.91c-1.4-2.18-2.47-4.45-2.26-7.1a12.77,12.77,0,0,1,2.62-6.51,12.92,12.92,0,0,0-1.63,4.07c-1.05,5.67,4.18,9.46,5.12,14.66a7.56,7.56,0,0,1-.73,4.6,25.26,25.26,0,0,0-1.94,4.39,9.4,9.4,0,0,0,1.48,7.56c1.76,2.52,4.59,3.65,7.54,4.08a19.81,19.81,0,0,0,9.87-.83,13.19,13.19,0,0,0,6.59-5.27,11.33,11.33,0,0,0,1.47-4.06c.27-1.54.33-3.12.7-4.64a6.9,6.9,0,0,1,2.63-4.12c1.23-.91,2.66-1.53,4-2.33l0,0,1.13-.38a8.72,8.72,0,0,0,4.07-2.67,10.6,10.6,0,0,0,2.05-4.75,9.68,9.68,0,0,0-.42-5.66,26.87,26.87,0,0,0-2-3.7c-.72-1.41-1.77-2.74-2.05-4.33-.31-1.81,2-4.92.86-8.52a13.41,13.41,0,0,0-4.94-6.49,11.19,11.19,0,0,0-1.82-2.94c-4.28-5-11.11-7.56-17.12-5.79-2.65.79-5.72,4-7.47,6.18-2.1,2.63-2.06,5.87-2.22,9.06a14.53,14.53,0,0,1-1,4.88,24.9,24.9,0,0,1-2.16,3.83l-.38.58a33.26,33.26,0,0,0-2.72,3.54,12.18,12.18,0,0,0-1.95,6.43c.09,5.17,5.25,8.3,5.65,13.37,0,.1.17.11.16,0C463.07,152.33,461.41,150.09,460,147.91Zm36.23,4a12.85,12.85,0,0,0,4.18-5.27,14,14,0,0,0,1.09-7.46,13.13,13.13,0,0,0-.54-2.31l.05.09a13.07,13.07,0,0,1,1.4,3.34,11.67,11.67,0,0,1-1.07,7.34,8.58,8.58,0,0,1-5,4.24Z" style="fill:#263238"></path><path d="M473.22,152.67c-9,12.83-19.83,28.56-29.33,44-4.16,6.76-14,20.7-16.45,24.32-3.27,4.78,23.08,15.86,24.95,12.36,1.23-2.28,7-15.85,11.66-27.43,5.94-14.88,15.08-34.27,16.66-48.7C482.12,144.36,476.7,147.69,473.22,152.67Z" style="fill:#f7a9a0"></path><path d="M441.38,242.27c1.34-1,1.9-.34,1.17,2.58s-6.06,13.88-2.07,15.42,11.28-14,12.11-19S453,228,453,228C451,230.75,445.43,236.94,441.38,242.27Z" style="fill:#f7a9a0"></path><path d="M431.65,215.1c-5.74,8-13,17.76-13.78,28.59a5.32,5.32,0,0,0,.84,3.42c-.42,4.85,1.74,6.51,1.74,6.51,1,4.63,3.44,6,3.44,6s-.42,5.7,3,6.53c3.81.94,3.66-7.25,6.34-11.8C439.33,243.94,451,230.84,453,228Z" style="fill:#f7a9a0"></path><path d="M432,238.93a78.43,78.43,0,0,0-4.85,9.43,77.72,77.72,0,0,0-3.09,11.2.1.1,0,0,1-.19,0,41.08,41.08,0,0,1,8-20.68C431.91,238.71,432,238.78,432,238.93Z" style="fill:#263238"></path><path d="M426.19,234.32c-1.53,3.11-4.17,8.61-5.62,19.31,0,0-.07,0-.07,0A37,37,0,0,1,426,234.25C426.15,234.06,426.29,234.11,426.19,234.32Z" style="fill:#263238"></path><path d="M423.05,231.9c-2.39,5.39-3.22,9.1-4.31,15.19,0,0-.07,0-.07,0,.52-7.06,1.5-9.56,4.21-15.3C423,231.59,423.15,231.69,423.05,231.9Z" style="fill:#263238"></path><path d="M454.29,173.44l20,8.57s6-15.8,7.93-25.88S481,142,470.87,153A215.34,215.34,0,0,0,454.29,173.44Z" style="fill:#00573F"></path><path d="M478.9,168.84c-.07.24-.15.48-.22.71a1.31,1.31,0,0,0-.53-.66,1.42,1.42,0,0,0-.65-.19c-.26,0-.51-.08-.77-.14a3,3,0,0,1,1.61-.09A1.31,1.31,0,0,1,478.9,168.84Zm-16.73,0a1.33,1.33,0,0,1-.6.33,1.19,1.19,0,0,1-1.13-.3,1.56,1.56,0,0,0-1.69-.35c-.59.26-.8.77-1.09,1.18.22-.13.43-.29.64-.43a1.24,1.24,0,0,1,.6-.31,1.19,1.19,0,0,1,1.12.35,1.55,1.55,0,0,0,1.71.29,3,3,0,0,0,1.08-1.19C462.58,168.52,462.38,168.68,462.17,168.82ZM470,158.48a1.46,1.46,0,0,1-.19.65,1.19,1.19,0,0,1-1,.58,1.57,1.57,0,0,0-1.44.95,2.65,2.65,0,0,0,.06,1.61c.07-.25.09-.51.14-.76a1.39,1.39,0,0,1,.21-.64,1.22,1.22,0,0,1,1-.55,1.56,1.56,0,0,0,1.42-1,3,3,0,0,0-.09-1.61C470.08,158,470.05,158.22,470,158.48Zm.14,21.55,0,.17.07,0C470.17,180.16,470.15,180.1,470.14,180ZM482.78,151a1.15,1.15,0,0,1-1-.35,1.56,1.56,0,0,0-1.71-.3,3.07,3.07,0,0,0-1.08,1.2c.23-.13.43-.29.65-.44a1.32,1.32,0,0,1,.59-.32,1.21,1.21,0,0,1,1.13.29,1.56,1.56,0,0,0,1.42.44C482.79,151.3,482.79,151.13,482.78,151Z" style="fill:#fff"></path><path d="M474.67,178.11q-4.05-2.21-8.2-4.19c-1.37-.66-2.72-1.33-4.1-2s-2.89-1.2-4.31-1.85c-.1-.05-.19.1-.09.15,1.35.68,2.66,1.45,4,2.14s2.81,1.36,4.21,2q4.17,2,8.42,3.79C474.68,178.26,474.75,178.15,474.67,178.11Z" style="fill:#263238"></path><path d="M482.27,156.13c-1.89,10.08-7.93,25.88-7.93,25.88l-19.2-8.21,24.55-27.35C482.69,146.11,483.42,150,482.27,156.13Z" style="opacity:0.1"></path><path d="M501.38,198.26S480,305.77,478.47,313.71c-.35,1.8.89,98,.89,98H439.58s-3.83-84.06-1.91-99.91,26.16-113.57,26.16-113.57Z" style="fill:#f7a9a0"></path><path d="M501.39,198.26S491,250.59,484.15,284.93l-20.33-86.67Z" style="fill:#263238"></path><path d="M410.15,448.21c2.19.73,64.93.54,67.32-1,.9-.57,1.41-9.72,1.71-20.77q.09-3.59.15-7.37c.05-3,.09-6,.1-8.88.08-13.11-.39-24.64-.39-24.64H438.49l0,24.64v8.88l.21,7.37s-24,10.81-26.42,12.76S408,447.49,410.15,448.21Z" style="fill:#f7a9a0"></path><path d="M410.15,448.21c2.19.73,64.93.54,67.32-1,.9-.57,1.41-9.72,1.71-20.77q.09-3.59.15-7.37H438.52l.21,7.37s-24,10.81-26.42,12.76S408,447.49,410.15,448.21Z" style="fill:#dbdbdb"></path><path d="M409.7,448.23c2.22.71,65.85,1,68.25-.57.91-.59,1.78-11,2-22.19l-41.54.46s-24.15,11.19-26.6,13.18S407.47,447.51,409.7,448.23Z" style="fill:#00573F"></path><path d="M410.57,445.67c10.64-.4,53.57-1,64.12-.61.08,0,.08.06,0,.06-10.53.63-53.47.91-64.11.73C410.35,445.84,410.35,445.68,410.57,445.67Z" style="fill:#263238"></path><path d="M415.83,436.78a8.53,8.53,0,0,1,6.4,2.51,8.32,8.32,0,0,1,2.46,5.65c0,.06-.12.07-.13,0a9.88,9.88,0,0,0-8.73-8C415.75,436.9,415.75,436.78,415.83,436.78Z" style="fill:#263238"></path><path d="M434.27,427c4.26-.12,9.22,1.32,11.91,4.77.1.13-.09.28-.22.21a59.12,59.12,0,0,0-11.75-4.46A.26.26,0,0,1,434.27,427Z" style="fill:#263238"></path><path d="M431,428.36c4.26-.11,9.22,1.33,11.91,4.77.1.14-.09.28-.22.22a59.12,59.12,0,0,0-11.75-4.46A.27.27,0,0,1,431,428.36Z" style="fill:#263238"></path><path d="M427.73,429.69c4.26-.12,9.22,1.32,11.91,4.77.1.13-.09.28-.22.21a58.48,58.48,0,0,0-11.75-4.45A.27.27,0,0,1,427.73,429.69Z" style="fill:#263238"></path><path d="M424.46,431c4.26-.12,9.22,1.32,11.91,4.76.1.14-.09.28-.22.22a59,59,0,0,0-11.76-4.46A.27.27,0,0,1,424.46,431Z" style="fill:#263238"></path><path d="M471.84,435c4.78-.05,4.87,7.37.08,7.42S467.06,435,471.84,435Z" style="fill:#fff"></path><path d="M429.94,422c2.34,2.94,5.87,4.76,8.92,6.82a.53.53,0,0,0,.77-.36.11.11,0,0,0,.13-.12,22.32,22.32,0,0,0-4-10.84c-1.35-1.84-4.09-3.55-6.22-1.73S428.58,420.26,429.94,422Zm-.24-3.52c.36-4.64,4.59-1.14,5.53.26a22,22,0,0,1,1.59,2.85,65.06,65.06,0,0,1,2.49,6.28c-1.44-1.1-3-2.07-4.45-3.12C433.1,423.47,429.5,421,429.7,418.45Z" style="fill:#263238"></path><path d="M454.84,425.39c-.37-2.78-3.55-3.33-5.78-2.87a22.37,22.37,0,0,0-10.24,5.37.12.12,0,0,0,0,.18.52.52,0,0,0,.33.77c3.65.52,7.49,1.52,11.19.9C452.52,429.38,455.19,428,454.84,425.39Zm-10,3.1c-1.8-.21-3.58-.5-5.39-.65,2-1,3.94-2.16,6-3a23.91,23.91,0,0,1,3.09-1.05c1.63-.41,7.12-.18,4.29,3.51C451.34,429.32,447,428.74,444.86,428.49Z" style="fill:#263238"></path><path d="M479.89,426.85c-.23,10.66-1.07,20.24-1.95,20.81s-9.92.89-21.15,1Z" style="opacity:0.1"></path><path d="M491.37,406.77l40.92-.5s-9.41-139.53-12.91-168.57c0,0,6.63-15.72-5.78-39.47H463.79s3.34,22.6,9,36.93a52.84,52.84,0,0,1,10.42,4.7Z" style="fill:#f7a9a0"></path><path d="M464.09,449.64c2.21.68,64.92-1.09,67.27-2.67.89-.59,1.17-9.74,1.18-20.81q0-3.59,0-7.36c0-3-.06-6-.12-8.89-.25-13.1-1.54-25.72-1.54-25.72l-40,2.13.64,24.63.23,8.88.4,7.36s-23.7,11.42-26.09,13.43S461.88,449,464.09,449.64Z" style="fill:#f7a9a0"></path><path d="M464.09,449.64c2.21.68,64.92-1.09,67.27-2.67.89-.59,1.17-9.74,1.18-20.81q0-3.59,0-7.36l-40.8,1,.4,7.36s-23.7,11.42-26.09,13.43S461.88,449,464.09,449.64Z" style="fill:#dbdbdb"></path><path d="M463.6,450c2.25.64,65.85-1.13,68.2-2.77.89-.61,1.43-11,1.26-22.23l-41.5,1.79s-23.78,12-26.17,14S461.35,449.39,463.6,450Z" style="fill:#00573F"></path><path d="M464.4,447.45c10.61-.75,53.51-2.75,64.06-2.68.08,0,.09.06,0,.07-10.51,1-53.41,2.62-64.06,2.78C464.18,447.63,464.17,447.46,464.4,447.45Z" style="fill:#263238"></path><path d="M469.37,438.39a8.52,8.52,0,0,1,6.47,2.3,8.29,8.29,0,0,1,2.64,5.57c0,.06-.12.07-.13,0a9.88,9.88,0,0,0-9-7.74A.07.07,0,0,1,469.37,438.39Z" style="fill:#263238"></path><path d="M487.48,428.06c4.25-.25,9.25,1,12.06,4.38.11.13-.08.29-.21.23a58.69,58.69,0,0,0-11.9-4.08A.27.27,0,0,1,487.48,428.06Z" style="fill:#263238"></path><path d="M484.26,429.49c4.25-.25,9.25,1,12.05,4.38.11.13-.08.29-.21.23A58.61,58.61,0,0,0,484.21,430,.27.27,0,0,1,484.26,429.49Z" style="fill:#263238"></path><path d="M481,430.92c4.25-.25,9.25,1,12.06,4.38.1.13-.08.29-.21.23a58.69,58.69,0,0,0-11.9-4.08A.27.27,0,0,1,481,430.92Z" style="fill:#263238"></path><path d="M477.8,432.35c4.26-.25,9.26,1,12.06,4.38.11.13-.08.29-.21.23a58.61,58.61,0,0,0-11.89-4.08A.27.27,0,0,1,477.8,432.35Z" style="fill:#263238"></path><path d="M525.29,434.8c4.77-.21,5.1,7.21.32,7.42S520.51,435,525.29,434.8Z" style="fill:#fff"></path><path d="M483,423.14c2.43,2.86,6,4.56,9.14,6.52a.52.52,0,0,0,.75-.38c.07,0,.14,0,.13-.13a22.38,22.38,0,0,0-4.37-10.7c-1.41-1.79-4.2-3.42-6.27-1.53S481.57,421.47,483,423.14Zm-.36-3.52c.22-4.65,4.55-1.28,5.54.08a24.2,24.2,0,0,1,1.69,2.8c1.06,2,1.82,4.11,2.68,6.2-1.47-1.06-3-2-4.54-3C486.2,424.53,482.52,422.18,482.63,419.62Z" style="fill:#263238"></path><path d="M508,425.75c-.46-2.76-3.66-3.22-5.88-2.69a22.42,22.42,0,0,0-10.05,5.71.11.11,0,0,0,0,.17.53.53,0,0,0,.36.77c3.66.39,7.53,1.27,11.21.54C505.79,429.82,508.42,428.36,508,425.75Zm-9.87,3.42c-1.81-.15-3.6-.39-5.41-.47a64.06,64.06,0,0,1,5.94-3.2,24,24,0,0,1,3.06-1.16c1.62-.46,7.11-.41,4.4,3.37C504.61,429.79,500.27,429.35,498.12,429.17Z" style="fill:#263238"></path><path d="M463.79,198.23H513.6s11.21,13.21,9.09,40.54l5.64,27.13s-42.52,12.12-82.26-3.84Z" style="fill:#00573F"></path><path d="M466.5,201.28a3,3,0,0,1,1.61-.09,1.56,1.56,0,0,1,1,1.42,1.22,1.22,0,0,0,.55,1,1.39,1.39,0,0,0,.64.21c.25,0,.51.08.76.14a2.65,2.65,0,0,1-1.61.06,1.57,1.57,0,0,1-.95-1.44,1.19,1.19,0,0,0-.58-1,1.46,1.46,0,0,0-.65-.19C467,201.37,466.76,201.34,466.5,201.28Zm46.81,16a1.28,1.28,0,0,1,.65.18,1.2,1.2,0,0,1,.59,1,1.56,1.56,0,0,0,1,1.45,2.81,2.81,0,0,0,1.61-.06c-.25-.07-.51-.1-.76-.15a1.19,1.19,0,0,1-.64-.21,1.22,1.22,0,0,1-.55-1,1.57,1.57,0,0,0-1-1.42,3,3,0,0,0-1.61.09C512.8,217.24,513.06,217.27,513.31,217.32Zm-4.25,25.19a1.42,1.42,0,0,1,.65.19,1.22,1.22,0,0,1,.59,1,1.56,1.56,0,0,0,.94,1.44,2.65,2.65,0,0,0,1.61-.06c-.25-.07-.5-.09-.76-.14a1.43,1.43,0,0,1-.64-.21,1.22,1.22,0,0,1-.55-1,1.56,1.56,0,0,0-1-1.42,3,3,0,0,0-1.61.09C508.55,242.43,508.8,242.46,509.06,242.51ZM489.52,222a1.28,1.28,0,0,1,.65.19,1.17,1.17,0,0,1,.59,1,1.55,1.55,0,0,0,.95,1.45,2.81,2.81,0,0,0,1.61-.06c-.25-.07-.51-.1-.76-.15a1.19,1.19,0,0,1-.64-.21,1.21,1.21,0,0,1-.55-1,1.54,1.54,0,0,0-1-1.41,3,3,0,0,0-1.61.08C489,222,489.27,222,489.52,222Zm-13.26,27.31a1.31,1.31,0,0,1,.65.19,1.18,1.18,0,0,1,.59,1,1.55,1.55,0,0,0,.95,1.44,2.81,2.81,0,0,0,1.61-.06c-.25-.07-.51-.1-.76-.15a1.19,1.19,0,0,1-.64-.21,1.22,1.22,0,0,1-.56-1,1.52,1.52,0,0,0-1-1.41,3,3,0,0,0-1.61.08C475.75,249.26,476,249.29,476.26,249.34Zm-23.49-1.88a1.42,1.42,0,0,1,.65.19,1.2,1.2,0,0,1,.59,1,1.55,1.55,0,0,0,.95,1.44,2.65,2.65,0,0,0,1.61-.06c-.25-.06-.51-.09-.76-.14a1.39,1.39,0,0,1-.64-.21,1.21,1.21,0,0,1-.56-1,1.53,1.53,0,0,0-1-1.42,3,3,0,0,0-1.61.09C452.26,247.38,452.52,247.41,452.77,247.46Zm12-22.81a1.31,1.31,0,0,1,.65.18,1.22,1.22,0,0,1,.59,1,1.55,1.55,0,0,0,.95,1.45,2.82,2.82,0,0,0,1.61-.06c-.26-.07-.51-.1-.77-.15a1.18,1.18,0,0,1-.63-.21,1.21,1.21,0,0,1-.56-1,1.54,1.54,0,0,0-1-1.42,3,3,0,0,0-1.6.09C464.29,224.57,464.55,224.6,464.8,224.65Zm28.85,42.57a1.34,1.34,0,0,1,.65.19,1.19,1.19,0,0,1,.58,1,1.55,1.55,0,0,0,.95,1.44,2.81,2.81,0,0,0,1.61-.06c-.25-.07-.51-.1-.76-.15a1.19,1.19,0,0,1-.64-.21,1.21,1.21,0,0,1-.55-1,1.54,1.54,0,0,0-1-1.41,3,3,0,0,0-1.61.08C493.14,267.14,493.39,267.17,493.65,267.22ZM480.93,215.4a1.32,1.32,0,0,1-.59.32,1.19,1.19,0,0,1-1.13-.3,1.56,1.56,0,0,0-1.69-.35c-.59.26-.8.77-1.1,1.19.23-.14.43-.3.65-.44a1.22,1.22,0,0,1,.6-.3,1.19,1.19,0,0,1,1.12.34,1.54,1.54,0,0,0,1.71.29,3,3,0,0,0,1.08-1.19C481.35,215.09,481.15,215.25,480.93,215.4Zm13.35,24.77a1.44,1.44,0,0,1-.6.33,1.21,1.21,0,0,1-1.13-.3,1.56,1.56,0,0,0-1.69-.35,2.79,2.79,0,0,0-1.09,1.18,7.23,7.23,0,0,0,.64-.44,1.31,1.31,0,0,1,.6-.3,1.24,1.24,0,0,1,1.13.34,1.52,1.52,0,0,0,1.7.3c.58-.28.78-.78,1.08-1.2C494.69,239.87,494.49,240,494.28,240.17Zm16.65,20a1.33,1.33,0,0,1-.6.33,1.17,1.17,0,0,1-1.12-.3,1.58,1.58,0,0,0-1.7-.35,2.79,2.79,0,0,0-1.09,1.18c.23-.13.43-.29.64-.43a1.24,1.24,0,0,1,.6-.31,1.21,1.21,0,0,1,1.13.35,1.55,1.55,0,0,0,1.71.29,3,3,0,0,0,1.07-1.19C511.34,259.84,511.14,260,510.93,260.14Zm-30.46,3.6a1.41,1.41,0,0,1-.6.32,1.19,1.19,0,0,1-1.12-.29,1.54,1.54,0,0,0-1.7-.35c-.58.25-.8.76-1.09,1.18.23-.14.43-.29.64-.44a1.22,1.22,0,0,1,.6-.3,1.21,1.21,0,0,1,1.13.34,1.54,1.54,0,0,0,1.7.3,3,3,0,0,0,1.08-1.2A7.23,7.23,0,0,0,480.47,263.74Zm20.16-52.91a1.3,1.3,0,0,1-.59.33,1.19,1.19,0,0,1-1.13-.3,1.56,1.56,0,0,0-1.69-.35c-.59.26-.8.77-1.1,1.18.23-.13.43-.29.65-.43a1.22,1.22,0,0,1,1.72,0,1.55,1.55,0,0,0,1.71.29,3,3,0,0,0,1.08-1.19C501.05,210.53,500.85,210.69,500.63,210.83Zm-33.35,28.56a1.35,1.35,0,0,1-.59.33,1.21,1.21,0,0,1-1.13-.3,1.56,1.56,0,0,0-1.69-.35c-.59.26-.8.77-1.1,1.18.23-.13.43-.29.65-.43a1.26,1.26,0,0,1,.59-.31,1.22,1.22,0,0,1,1.13.34,1.54,1.54,0,0,0,1.71.3,3,3,0,0,0,1.08-1.2C467.7,239.09,467.5,239.25,467.28,239.39Zm-13.34,24.46a1.41,1.41,0,0,1-.59.33,1.23,1.23,0,0,1-1.13-.3,1.56,1.56,0,0,0-1.69-.35,1.55,1.55,0,0,0-.22.12c1,.36,2,.7,3,1l.18-.06a3.07,3.07,0,0,0,1.08-1.2C454.36,263.54,454.16,263.7,453.94,263.85Zm68.3-31.63a1.56,1.56,0,0,0-1.69-.35c-.59.26-.8.77-1.1,1.19.23-.14.43-.3.65-.44a1.26,1.26,0,0,1,.59-.31,1.23,1.23,0,0,1,1.13.35,1.54,1.54,0,0,0,1.13.43c0-.18,0-.36,0-.54A1.1,1.1,0,0,1,522.24,232.22Zm-16.51-3.59a1.42,1.42,0,0,1-.19.65,1.22,1.22,0,0,1-1,.59,1.56,1.56,0,0,0-1.44.94,2.69,2.69,0,0,0,.06,1.62c.06-.26.09-.51.14-.77a1.43,1.43,0,0,1,.21-.64,1.22,1.22,0,0,1,1-.55,1.56,1.56,0,0,0,1.42-1,3,3,0,0,0-.09-1.61C505.81,228.12,505.78,228.37,505.73,228.63Zm6-28.6a1.31,1.31,0,0,1-.19.65,1.17,1.17,0,0,1-1,.59,1.55,1.55,0,0,0-1.45.95,2.81,2.81,0,0,0,.06,1.61c.07-.26.1-.51.15-.77a1.26,1.26,0,0,1,1.25-1.19,1.52,1.52,0,0,0,1.41-1,3,3,0,0,0-.08-1.61C511.82,199.52,511.79,199.78,511.74,200Zm-30.13,31a1.38,1.38,0,0,1-.19.65,1.2,1.2,0,0,1-1,.59,1.55,1.55,0,0,0-1.44,1,2.65,2.65,0,0,0,.06,1.61c.06-.25.09-.51.14-.76a1.39,1.39,0,0,1,.21-.64,1.22,1.22,0,0,1,1-.55,1.56,1.56,0,0,0,1.42-1,3,3,0,0,0-.09-1.61C481.69,230.54,481.66,230.8,481.61,231.05Zm15.21,20.65a1.31,1.31,0,0,1-.19.65,1.21,1.21,0,0,1-1,.59,1.55,1.55,0,0,0-1.44.95,2.81,2.81,0,0,0,.06,1.61c.07-.26.1-.51.15-.77a1.27,1.27,0,0,1,.2-.63,1.22,1.22,0,0,1,1-.56,1.52,1.52,0,0,0,1.42-1,3.05,3.05,0,0,0-.08-1.6C496.9,251.19,496.87,251.45,496.82,251.7Zm29,7.83a1.34,1.34,0,0,1-.19.65,1.21,1.21,0,0,1-1,.59,1.54,1.54,0,0,0-1.44.94,2.73,2.73,0,0,0,.06,1.61c.07-.25.1-.51.15-.76a1.28,1.28,0,0,1,.2-.64,1.23,1.23,0,0,1,1-.55,1.55,1.55,0,0,0,1.42-1,3.09,3.09,0,0,0-.08-1.61C525.89,259,525.86,259.27,525.81,259.53Zm-59.93-3.69a1.31,1.31,0,0,1-.19.65,1.19,1.19,0,0,1-1,.59,1.55,1.55,0,0,0-1.44.95,2.73,2.73,0,0,0,.06,1.61c.07-.25.1-.51.15-.76a1.28,1.28,0,0,1,.2-.64,1.24,1.24,0,0,1,1-.56,1.52,1.52,0,0,0,1.42-1,3.09,3.09,0,0,0-.08-1.61C466,255.33,465.93,255.59,465.88,255.84Zm-10.47-26.5c-.07.25-.1.51-.15.76a1.31,1.31,0,0,1-.19.65,1.26,1.26,0,0,1-.43.43l-.19.71a1.49,1.49,0,0,0,1-.94A3,3,0,0,0,455.41,229.34ZM487.94,200a1.31,1.31,0,0,1-.19.65,1.18,1.18,0,0,1-1,.59,1.55,1.55,0,0,0-1.44.95,2.81,2.81,0,0,0,.06,1.61c.07-.26.1-.51.15-.77a1.26,1.26,0,0,1,1.25-1.19,1.52,1.52,0,0,0,1.41-1,3,3,0,0,0-.08-1.61C488,199.52,488,199.78,487.94,200Z" style="fill:#fff"></path><path d="M513.6,198.23l-49.77,0,1.73-13.9s-3.88-5.72-3.19-11.8,14-22.84,15-23.74c4.21-3.61,10.26-2.69,13.81.35C504.55,160.59,513.6,198.23,513.6,198.23Z" style="fill:#00573F"></path><path d="M484.71,181.24a48.11,48.11,0,0,0-8,.79c-1.32.26-2.62.6-3.92,1-.65.18-1.3.34-2,.49a7.3,7.3,0,0,1-2.07.26.06.06,0,0,0,0,.11,12.83,12.83,0,0,0,2,.14,12.19,12.19,0,0,0,1.9-.24c1.34-.26,2.67-.58,4-.85,2.7-.55,5.4-1.09,8.12-1.41C484.84,181.48,484.84,181.24,484.71,181.24Z" style="fill:#263238"></path><path d="M491,184.57a50,50,0,0,0-6.55-1c-1.1-.08-2.2-.09-3.3-.07-.53,0-1.06,0-1.59.06s-1.16.16-1.74.18c-.06,0-.07.11,0,.11.55,0,1.1.1,1.64.14l1.65.1,3.3.21c2.2.11,4.39.25,6.59.45C491.11,184.79,491.12,184.59,491,184.57Z" style="fill:#263238"></path><path d="M490.6,157.91a3.09,3.09,0,0,1,1.61-.08,1.55,1.55,0,0,1,1,1.42,1.23,1.23,0,0,0,.55,1,1.28,1.28,0,0,0,.64.2c.25,0,.51.08.76.15a2.73,2.73,0,0,1-1.61.06,1.55,1.55,0,0,1-.95-1.44,1.19,1.19,0,0,0-.59-1,1.28,1.28,0,0,0-.65-.19C491.11,158,490.85,158,490.6,157.91Zm5.77,32.1a1.31,1.31,0,0,1,.65.19,1.2,1.2,0,0,1,.59,1,1.55,1.55,0,0,0,.95,1.44,2.81,2.81,0,0,0,1.61-.06c-.26-.07-.51-.1-.77-.15a1.26,1.26,0,0,1-1.19-1.25,1.52,1.52,0,0,0-1-1.41,3,3,0,0,0-1.6.08C495.86,189.93,496.12,190,496.37,190ZM477.5,168.7a1.42,1.42,0,0,1,.65.19,1.22,1.22,0,0,1,.59,1,1.56,1.56,0,0,0,.94,1.44,2.69,2.69,0,0,0,1.62-.06c-.26-.07-.51-.09-.77-.14a1.43,1.43,0,0,1-.64-.21,1.22,1.22,0,0,1-.55-1,1.54,1.54,0,0,0-1-1.42,3,3,0,0,0-1.61.09C477,168.62,477.24,168.65,477.5,168.7Zm31.2,13a.9.9,0,0,1-.21.08,1.2,1.2,0,0,1-1.13-.29,1.53,1.53,0,0,0-1.69-.35c-.59.25-.81.76-1.1,1.18.23-.14.43-.29.65-.44a1.19,1.19,0,0,1,.59-.3,1.21,1.21,0,0,1,1.13.34,1.56,1.56,0,0,0,1.71.3,1.18,1.18,0,0,0,.19-.11C508.8,181.94,508.75,181.8,508.7,181.66Zm-26.16,6.79a1.33,1.33,0,0,1-.6.33,1.19,1.19,0,0,1-1.13-.3,1.56,1.56,0,0,0-1.69-.35,2.79,2.79,0,0,0-1.09,1.18c.23-.13.43-.29.64-.43a1.24,1.24,0,0,1,.6-.31,1.21,1.21,0,0,1,1.13.35,1.53,1.53,0,0,0,1.7.29c.58-.28.78-.78,1.08-1.19C483,188.15,482.75,188.31,482.54,188.45Zm10.81-13.62a1.42,1.42,0,0,1-.19.65,1.22,1.22,0,0,1-1,.59,1.55,1.55,0,0,0-1.44,1,2.66,2.66,0,0,0,.06,1.61c.07-.26.09-.51.14-.77a1.35,1.35,0,0,1,.21-.63,1.21,1.21,0,0,1,1-.56,1.54,1.54,0,0,0,1.42-1,3,3,0,0,0-.09-1.61C493.43,174.32,493.4,174.57,493.35,174.83Zm-25.93-12.56,0-.12a.21.21,0,0,0,0,.06S467.42,162.25,467.42,162.27Zm2.79-4.2c0,.09-.12.18-.18.27h0a.59.59,0,0,1,0,.13,1.46,1.46,0,0,1-.19.65,1.25,1.25,0,0,1-.71.54h0q-.24.33-.45.66a.44.44,0,0,1,.16,0,1.56,1.56,0,0,0,1.42-1A2.2,2.2,0,0,0,470.21,158.07ZM470,180.8a1.42,1.42,0,0,1-.19.65,1.22,1.22,0,0,1-1,.59,1.55,1.55,0,0,0-1.44,1,2.66,2.66,0,0,0,.06,1.61c.07-.26.09-.51.14-.77a1.35,1.35,0,0,1,.21-.63,1.21,1.21,0,0,1,1-.56,1.54,1.54,0,0,0,1.42-1,3,3,0,0,0-.09-1.61C470.08,180.29,470.05,180.54,470,180.8Zm9.65-29.73a1.32,1.32,0,0,1,.59-.32,1.21,1.21,0,0,1,1.13.29,1.53,1.53,0,0,0,1.69.35c.59-.25.8-.76,1.1-1.18-.23.13-.43.29-.65.44a1.31,1.31,0,0,1-.6.3,1.19,1.19,0,0,1-1.12-.34,1.56,1.56,0,0,0-1.71-.3,3.07,3.07,0,0,0-1.08,1.2C479.23,151.38,479.43,151.22,479.65,151.07Z" style="fill:#fff"></path><path d="M497.26,151.05c21.36,13,44.2,40.9,42,49.26-2.39,9.32-26.53-6-26.8-7.47-.19-1.09-12.84-18.67-22.37-35.37C481.35,142,492,147.84,497.26,151.05Z" style="fill:#f7a9a0"></path><path d="M499.53,178.42l23.16-9.6s-21.17-17.66-28.87-21.1c-8.65-3.87-8.74,1.41-5.59,9.85S499.53,178.42,499.53,178.42Z" style="fill:#00573F"></path><path d="M490.6,157.91a3.09,3.09,0,0,1,1.61-.08,1.55,1.55,0,0,1,1,1.42,1.23,1.23,0,0,0,.55,1,1.28,1.28,0,0,0,.64.2c.25,0,.51.08.76.15a2.73,2.73,0,0,1-1.61.06,1.55,1.55,0,0,1-.95-1.44,1.19,1.19,0,0,0-.59-1,1.28,1.28,0,0,0-.65-.19C491.11,158,490.85,158,490.6,157.91Zm15-2.54a6.92,6.92,0,0,0-.57.8c.23-.13.43-.29.65-.44a1.37,1.37,0,0,1,.21-.15Zm-11.51-7.53a8,8,0,0,0,.15.92c.07-.25.1-.51.15-.76h0Zm14.73,18.28a1.31,1.31,0,0,1-.19.65,1.19,1.19,0,0,1-1,.59,1.55,1.55,0,0,0-1.45.95,2.82,2.82,0,0,0,.06,1.61c.07-.26.1-.51.15-.77a1.26,1.26,0,0,1,1.25-1.19,1.52,1.52,0,0,0,1.41-1,3,3,0,0,0-.08-1.6C508.9,165.61,508.87,165.87,508.82,166.12Z" style="fill:#fff"></path><path d="M498.48,174.25c.75-.45,7.94-3.5,9.52-4.13s8-3.26,9.69-3.78c.07,0,.12.08,0,.11-1.55.82-8,3.5-9.62,4.17s-8.77,3.54-9.61,3.74C498.44,174.38,498.43,174.28,498.48,174.25Z" style="fill:#263238"></path><path d="M502.52,177.18q-1.44.75-2.91,1.44l-.15.07-.11-.15q-2.72-3.85-5.06-8c-.78-1.37-1.54-2.75-2.22-4.16a38.59,38.59,0,0,1-1.89-4.33c1.52,2.75,3.13,5.43,4.74,8.12l2.41,4,2.38,4.06-.26-.09C500.46,177.85,501.49,177.51,502.52,177.18Z" style="fill:#263238"></path><path d="M493.22,168a7.12,7.12,0,0,1-1.64-1.4,6.44,6.44,0,0,1-1.16-1.81,12.72,12.72,0,0,1,1.54,1.48A11,11,0,0,1,493.22,168Z" style="fill:#263238"></path><polygon points="423.72 223.01 421.02 190.18 414.05 161.3 434.28 163.06 448.97 158.54 464.77 161.72 483.32 155.54 480.96 187.24 486.54 218.35 472.61 223.28 455.49 219.82 441.67 225.86 423.72 223.01" style="fill:#ebebeb"></polygon><polygon points="441.67 225.86 434.28 163.06 448.97 158.54 455.49 219.82 441.67 225.86" style="fill:#dbdbdb"></polygon><polygon points="472.61 223.28 464.77 161.72 483.32 155.54 480.96 187.24 486.54 218.35 472.61 223.28" style="fill:#dbdbdb"></polygon><path d="M539.19,200.86c-2.26,4.1-10.09,9.13-37.28,11.93-3.76.39-11.79-26.48-7.8-27.1,5-.79,22-1.75,23.47-1.63C528.41,184.93,541.46,196.77,539.19,200.86Z" style="fill:#f7a9a0"></path><path d="M463.58,191.25a4.21,4.21,0,0,0,2,4.39,6.25,6.25,0,0,0-1.79,3.86c-.11,2.58,3.89,3.87,3.89,3.87a7.66,7.66,0,0,0-1.24,4.37c.14,2.48,4,4.36,4,4.36a6.77,6.77,0,0,0,1.33,4.53c2.74,3.38,9.33,2.56,13.52,2.08s15.64-5.76,17.92-6.54l-4.38-26.65s-17.86-3.5-22.71-2.24C472,184.35,464.32,188,463.58,191.25Z" style="fill:#f7a9a0"></path><path d="M465.69,195.19c4.07-2.17,8.57-3,13-4.12a.08.08,0,0,1,0,.15c-4.43,1.05-8.59,3-13,4.17A.11.11,0,0,1,465.69,195.19Z" style="fill:#263238"></path><path d="M467.7,203a12.13,12.13,0,0,1,3-.82c1.1-.21,2.2-.41,3.3-.58,2.2-.36,4.41-.67,6.63-.91.1,0,.14.14,0,.15q-3.3.54-6.57,1.21c-1.09.22-2.17.46-3.26.7a14.3,14.3,0,0,1-3.1.55A.16.16,0,0,1,467.7,203Z" style="fill:#263238"></path><path d="M470.49,212.08a8.68,8.68,0,0,1,2.77-.59l3-.44c2-.31,4-.61,6-1a.08.08,0,0,1,0,.16c-2,.39-4,.81-6.08,1.18l-3,.54a8.06,8.06,0,0,1-2.76.24A.05.05,0,0,1,470.49,212.08Z" style="fill:#263238"></path><path d="M497.39,185.25c2.49-.11,5-.27,7.46-.41s5-.34,7.45-.41a30.76,30.76,0,0,1,7.37.26,65.46,65.46,0,0,1,7.26,1.62,38.27,38.27,0,0,0-7.15-2.23,28.79,28.79,0,0,0-7.52-.45c-2.49.14-5,.32-7.46.59S499.85,184.81,497.39,185.25Z" style="fill:#263238"></path><path d="M488,148.24c-.27,1-5.24,7.32-9.8,7C476.72,155.08,477,147,477,147l-.11-.61-1.62-8.47,10.08-6,1.45-.79s.29,2.34.62,5.27c0,.13,0,.27.05.41s0,.32.06.48c.06.43.11.88.15,1.33s.08.66.1,1l.09,1.06A56.17,56.17,0,0,1,488,148.24Z" style="fill:#f7a9a0"></path><path d="M487.43,136.34a17.29,17.29,0,0,1-10.53,10l-1.62-8.47,10.08-6,1.45-.79S487.1,133.41,487.43,136.34Z" style="fill:#263238"></path><path d="M463.67,123.29c-3,14.83,5.59,18.28,8.79,18.92,2.91.57,12.87,2.17,17.35-12.28s-1.48-20.52-8.06-22.19S466.64,108.45,463.67,123.29Z" style="fill:#f7a9a0"></path><path d="M466.24,122.46a9.28,9.28,0,0,0,1-.08,1.71,1.71,0,0,0,1-.29.52.52,0,0,0,.08-.65,1.32,1.32,0,0,0-1.26-.48,2,2,0,0,0-1.31.53A.57.57,0,0,0,466.24,122.46Z" style="fill:#263238"></path><path d="M476.31,123.38c-.35-.09-.65-.23-1-.35a1.66,1.66,0,0,1-.94-.54.55.55,0,0,1,.09-.65,1.31,1.31,0,0,1,1.34-.14,1.93,1.93,0,0,1,1.14.84A.58.58,0,0,1,476.31,123.38Z" style="fill:#263238"></path><path d="M473.73,126s.07.06.07.1c-.19,1-.23,2.21.64,2.69,0,0,0,.06,0,0C473.32,128.49,473.39,126.91,473.73,126Z" style="fill:#263238"></path><path d="M474.8,125.05c1.66.13,1.29,3.43-.25,3.32S473.41,125,474.8,125.05Z" style="fill:#263238"></path><path d="M475.43,125.3c.27.22.51.58.86.66s.74-.23,1-.53c0,0,.06,0,.05,0-.06.63-.38,1.26-1.07,1.27s-1-.59-1.09-1.24C475.2,125.38,475.32,125.21,475.43,125.3Z" style="fill:#263238"></path><path d="M468.1,124.86s-.09,0-.09.08c-.07,1-.33,2.19-1.29,2.44,0,0,0,.05,0,.05C467.87,127.39,468.19,125.84,468.1,124.86Z" style="fill:#263238"></path><path d="M467.29,123.69c-1.63-.29-2.1,3-.59,3.27S468.66,123.94,467.29,123.69Z" style="fill:#263238"></path><path d="M466.58,123.81c-.29.14-.59.42-.9.39s-.58-.42-.76-.79c0,0-.05,0-.06,0-.11.63,0,1.32.59,1.52s1-.29,1.26-.89C466.76,123.94,466.69,123.75,466.58,123.81Z" style="fill:#263238"></path><path d="M472.8,134.63c-.27.22-.53.54-.91.55a2.83,2.83,0,0,1-1.09-.34,0,0,0,0,0,0,0,1.37,1.37,0,0,0,1.26.65,1.1,1.1,0,0,0,.87-.86C472.91,134.62,472.83,134.6,472.8,134.63Z" style="fill:#263238"></path><path d="M469,130.41s-.4,1.5-.49,2.22c0,.06.16.12.41.16h0a3.48,3.48,0,0,0,3.49-.87c.06-.06,0-.15-.1-.11a5.17,5.17,0,0,1-3.23.51c0-.21.77-2.55.65-2.57a6.31,6.31,0,0,0-1.68.16c.74-3.15,2-6.15,2.68-9.3,0-.11-.14-.17-.18-.07a52.11,52.11,0,0,0-3.31,9.9C467.13,130.85,468.68,130.49,469,130.41Z" style="fill:#263238"></path><path d="M469,132.54a4.14,4.14,0,0,0,1.41,1.57,1.9,1.9,0,0,0,1.11.28c.85-.06,1-.8,1-1.47a4.73,4.73,0,0,0-.19-1A5.42,5.42,0,0,1,469,132.54Z" style="fill:#263238"></path><path d="M470.41,134.11a1.9,1.9,0,0,0,1.11.28c.85-.06,1-.8,1-1.47A1.94,1.94,0,0,0,470.41,134.11Z" style="fill:#ff98b9"></path><path d="M489.27,131.26a6.19,6.19,0,0,1-3.06-5.29,16.16,16.16,0,0,1-6.16-5.78c.08.32.63,2.6.95,3.75-9.35-2.5-11.74-10-11.74-10a16.24,16.24,0,0,0-4.59,5.7s.37-5.83,3.66-9.5a9.41,9.41,0,0,1,9-3.21,13.46,13.46,0,0,1,12.8,5C495.74,119.17,489.27,131.26,489.27,131.26Z" style="fill:#263238"></path><path d="M473.91,121.82a17.3,17.3,0,0,0,4.73,2.16s0,0,0,0a14.93,14.93,0,0,1-6.65-4.75,14.06,14.06,0,0,1-1.83-3,9.64,9.64,0,0,1-1-3.71c0-.1-.15-.09-.15,0a11.34,11.34,0,0,0,.47,3.8,10.45,10.45,0,0,0,1.86,3.3,12,12,0,0,0,2.54,2.24" style="fill:#263238"></path><path d="M487.22,130.6s3.81-4.33,5.81-2.93-1.23,7.94-3.83,8.59a2.55,2.55,0,0,1-3.25-1.74Z" style="fill:#f7a9a0"></path><path d="M492.06,129.52s0,.06,0,.07c-1.83.52-2.93,2-3.77,3.65a1.43,1.43,0,0,1,2.15-.15.06.06,0,0,1-.06.09,1.58,1.58,0,0,0-1.78.36,7.38,7.38,0,0,0-1,1.3c-.1.14-.37,0-.29-.14v0C487.55,132.42,489.63,129.48,492.06,129.52Z" style="fill:#263238"></path><path d="M471.82,107.44,482,99.23s11.68,2.58,18.11,9.77l-1,12.46Z" style="fill:#00573F"></path><path d="M499.49,116.55l-.37,4.91-27.3-14,3.6-2.92C488.47,107,499.49,116.55,499.49,116.55Z" style="fill:#263238"></path><path d="M461.19,111.71c.2,0,24.35,3,39.5,21.2l-1.58-11.45s-7.7-10-27.29-14Z" style="fill:#00573F"></path></g><g id="freepik--character-1--inject-84"><path d="M153.83,199.75s21.4,107.51,22.91,115.44c.35,1.81-.89,98-.89,98h39.78s3.84-84.06,1.91-99.91-26.16-113.57-26.16-113.57Z" style="fill:#eb9481"></path><path d="M153.82,199.75s10.42,52.32,17.24,86.66l20.33-86.66Z" style="fill:#263238"></path><polygon points="204.88 253.5 162.58 258.58 153.82 199.75 191.38 199.75 204.88 253.5" style="fill:#37474f"></polygon><path d="M159.68,203.18q4.71,16.89,9,33.91c.41,1.59.79,3.19,1.18,4.78a49.31,49.31,0,0,1,1.05,4.94.08.08,0,0,1-.15,0,86.46,86.46,0,0,1-2.47-8.52c-.76-2.81-1.48-5.63-2.21-8.46-1.45-5.64-2.91-11.28-4.28-16.94-.78-3.23-1.56-6.47-2.32-9.7A.11.11,0,1,1,159.68,203.18Z" style="fill:#263238"></path><rect x="161.07" y="251.6" width="45.76" height="7.15" transform="translate(-34.98 29.29) rotate(-8.32)" style="fill:#455a64"></rect><path d="M245.06,449.69c-2.19.73-64.93.55-67.32-1-.9-.56-1.41-9.71-1.71-20.77-.06-2.39-.11-4.85-.15-7.36,0-3-.09-6-.11-8.89-.07-13.1.4-24.64.4-24.64h40.55l0,24.64v8.89l-.21,7.36s24,10.82,26.42,12.77S247.25,449,245.06,449.69Z" style="fill:#eb9481"></path><path d="M245.06,449.69c-2.19.73-64.93.55-67.32-1-.9-.56-1.41-9.71-1.71-20.77-.06-2.39-.11-4.85-.15-7.36,0-3-.09-6-.11-8.89H216.7v8.89l-.21,7.36s24,10.82,26.42,12.77S247.25,449,245.06,449.69Z" style="fill:#dbdbdb"></path><path d="M245.25,449.79c-1.43.47-28.15.56-47.6.16-4.5-.1-8.62-.22-11.94-.37-4.58-.21-7.65-.46-8.15-.77-1.11-.71-1.63-14.13-1.88-28.29h41l-.21,7.4s24.12,10.88,26.57,12.83S247.45,449.05,245.25,449.79Z" style="fill:#00573F"></path><path d="M244.36,447.26c-10.58-.29-53.25-.46-63.73.05-.08,0-.08.07,0,.07,10.48.52,53.15.34,63.73.05C244.58,447.43,244.58,447.27,244.36,447.26Z" style="fill:#263238"></path><path d="M218,425.58c-4.16-.79-9.25-.17-12.44,2.79-.12.11,0,.29.18.24A58.48,58.48,0,0,1,218,426.1.26.26,0,0,0,218,425.58Z" style="fill:#263238"></path><path d="M221,427.4c-4.16-.79-9.25-.17-12.44,2.79-.13.11,0,.29.17.24A58.7,58.7,0,0,1,221,427.92.26.26,0,0,0,221,427.4Z" style="fill:#263238"></path><path d="M224,429.21c-4.15-.78-9.25-.16-12.43,2.8-.13.11,0,.28.17.24A58.7,58.7,0,0,1,224,429.74.27.27,0,0,0,224,429.21Z" style="fill:#263238"></path><path d="M227,431c-4.16-.78-9.25-.16-12.44,2.79-.12.12.05.29.18.25A58.74,58.74,0,0,1,227,431.56.27.27,0,0,0,227,431Z" style="fill:#263238"></path><path d="M225.72,416c-1.63-2.26-4.68-1.26-6.42.2a22.14,22.14,0,0,0-6.43,9.51.11.11,0,0,0,.09.15.52.52,0,0,0,.66.52c3.44-1.26,7.27-2.18,10.22-4.46C225.56,420.57,227.26,418.11,225.72,416Zm-7.28,7.4c-1.68.67-3.38,1.24-5,2,1.26-1.85,2.44-3.74,3.88-5.47a24.92,24.92,0,0,1,2.22-2.38c1.24-1.12,6.14-3.5,5.4,1.06C224.5,421.07,220.44,422.59,218.44,423.38Z" style="fill:#263238"></path><path d="M202.29,424.57c3.43,1.48,7.37,1.41,11,1.78a.52.52,0,0,0,.5-.67.12.12,0,0,0,.06-.17,22.26,22.26,0,0,0-8.61-7.61c-2-1-5.25-1.18-6.27,1.41S200.29,423.72,202.29,424.57Zm-1.87-3c-1.86-4.23,3.49-3.15,5-2.37a24,24,0,0,1,2.74,1.75,66.17,66.17,0,0,1,5.12,4.33c-1.78-.29-3.57-.42-5.36-.64C205.76,424.4,201.45,423.94,200.42,421.6Z" style="fill:#263238"></path><path d="M201.3,450l-3.65-.07c-4.51-.1-8.62-.22-11.94-.37-4.58-.2-7.65-.46-8.16-.77-.83-.54-1.34-8.39-1.64-18.32Z" style="opacity:0.1"></path><path d="M163.84,408.26l-40.92-.51s9.41-139.53,12.91-168.57c0,0-6.63-15.72,5.78-39.47h49.81s-3.34,22.6-9,36.93a53.64,53.64,0,0,0-10.42,4.7Z" style="fill:#eb9481"></path><path d="M171.22,258.9H132.09l3-19.72s-5.94-20,5.67-39.47h50.69s-2.1,21.2-8.32,37.15l-6.36,2.82Z" style="fill:#37474f"></path><path d="M176.74,239.68c0-.25.56-.25.51,0-2.06,11.62-5.31,17.25-5.55,17.78,0,.07-.12.08-.14,0C171.38,256.92,175.81,244.51,176.74,239.68Z" style="fill:#263238"></path><path d="M184.26,236.07a81.6,81.6,0,0,0-13,6,.14.14,0,1,0,.12.26c4.36-1.87,8.82-3.67,13.07-5.78A.28.28,0,0,0,184.26,236.07Z" style="fill:#263238"></path><path d="M185.65,206.1c0-.15-.28-.18-.28,0a143.21,143.21,0,0,1-.73,14.59c-.2,2.25-2,14.68-5.91,13.78-.66-.15-1-.8-1.09-1.78a15,15,0,0,1,.52-3.81c.43-2.61.78-5.22,1-7.85a70.81,70.81,0,0,0-.16-14.7.13.13,0,0,0-.25,0,135.09,135.09,0,0,1-1.19,20.3c-.49,3.24-2.12,8.1,1.27,8.6s5.67-7.65,6.09-9.88A74.67,74.67,0,0,0,185.65,206.1Z" style="fill:#263238"></path><path d="M178.83,234.78a21.79,21.79,0,0,0-.88,2.58,6,6,0,0,0-.36,2.12c0,.13.19.15.27.05a7.17,7.17,0,0,0,.9-2.06c.3-.79.61-1.58.89-2.39A.44.44,0,0,0,178.83,234.78Z" style="fill:#263238"></path><path d="M142.53,221.31c3.68-.37,7.48-.32,10.89-2s5.68-5,7.46-8.27a27.8,27.8,0,0,0,2.45-6.49c0-.1.18-.07.18,0a18,18,0,0,1-1.51,6.12,26.78,26.78,0,0,1-2.93,5.42,13.13,13.13,0,0,1-4.2,4,14.73,14.73,0,0,1-5.53,1.67,31.1,31.1,0,0,1-6.82-.05A.21.21,0,0,1,142.53,221.31Z" style="fill:#263238"></path><path d="M137.45,243.34a34.55,34.55,0,0,0,1.1-5.5c.1-1.85-.87-3.44-1.43-5.15-2.17-6.62-1.29-13.87,1.07-20.3a73.31,73.31,0,0,1,5.09-10.61c.05-.09.18,0,.13.08-3.23,6.3-6.08,13-6.71,20.15a26.85,26.85,0,0,0,1,10.21c.47,1.57,1.37,3.08,1.51,4.73a17.29,17.29,0,0,1-.81,5.13c-.47,2.06-1.92,8.29-2.55,10.38-.06.18-.37.15-.34-.05C135.75,250.55,137,245.25,137.45,243.34Z" style="fill:#263238"></path><rect x="129.48" y="256.14" width="44.49" height="7.15" style="fill:#455a64"></rect><path d="M191.12,451.13c-2.21.67-64.92-1.1-67.27-2.67-.89-.59-1.17-9.75-1.18-20.81,0-2.39,0-4.85,0-7.36,0-3,.06-6,.12-8.89.25-13.1,1.54-25.73,1.54-25.73l40,2.13-.64,24.63-.23,8.89-.4,7.35s23.7,11.42,26.09,13.43S193.33,450.46,191.12,451.13Z" style="fill:#eb9481"></path><path d="M191.12,451.13c-2.21.67-64.92-1.1-67.27-2.67-.89-.59-1.17-9.75-1.18-20.81,0-2.39,0-4.85,0-7.36,0-3,.06-6,.12-8.89l40.91,1-.23,8.89-.4,7.35s23.7,11.42,26.09,13.43S193.33,450.46,191.12,451.13Z" style="fill:#dbdbdb"></path><path d="M191.31,451.23c-1.44.43-28.16-.15-47.59-1-4.5-.21-8.62-.44-11.93-.67-4.57-.33-7.64-.65-8.13-1-1.08-.74-1.27-14.17-1.16-28.33l41,1-.4,7.39s23.83,11.48,26.24,13.5S193.53,450.54,191.31,451.23Z" style="fill:#00573F"></path><path d="M190.48,448.68c-10.57-.56-53.22-1.81-63.71-1.56-.08,0-.09.06,0,.07,10.46.78,53.12,1.69,63.7,1.66C190.7,448.85,190.7,448.69,190.48,448.68Z" style="fill:#263238"></path><path d="M164.69,426.34c-4.14-.9-9.25-.4-12.51,2.47-.13.11,0,.29.17.25a59,59,0,0,1,12.3-2.2A.26.26,0,0,0,164.69,426.34Z" style="fill:#263238"></path><path d="M167.64,428.23c-4.14-.89-9.25-.4-12.51,2.48-.12.11,0,.29.17.25a58.33,58.33,0,0,1,12.31-2.2A.27.27,0,0,0,167.64,428.23Z" style="fill:#263238"></path><path d="M170.59,430.13c-4.14-.9-9.24-.4-12.51,2.47-.12.11,0,.29.17.25a58.33,58.33,0,0,1,12.31-2.2A.26.26,0,0,0,170.59,430.13Z" style="fill:#263238"></path><path d="M173.54,432c-4.14-.89-9.24-.4-12.5,2.48-.13.11,0,.28.17.25a58.9,58.9,0,0,1,12.3-2.21A.26.26,0,0,0,173.54,432Z" style="fill:#263238"></path><path d="M172.64,416.93c-1.57-2.29-4.64-1.37-6.42,0a22.35,22.35,0,0,0-6.68,9.35c0,.09,0,.14.1.16a.52.52,0,0,0,.64.53c3.47-1.17,7.32-2,10.33-4.2C172.36,421.52,174.13,419.11,172.64,416.93Zm-7.47,7.23c-1.69.61-3.4,1.15-5.07,1.83a63.6,63.6,0,0,1,4-5.37,22.6,22.6,0,0,1,2.27-2.32c1.27-1.1,6.23-3.35,5.37,1.19C171.29,422,167.19,423.42,165.17,424.16Z" style="fill:#263238"></path><path d="M149,424.94c3.39,1.56,7.33,1.59,11,2.05.38.05.58-.34.52-.66a.11.11,0,0,0,.06-.16,22.36,22.36,0,0,0-8.41-7.83c-2-1-5.22-1.31-6.3,1.25S147,424,149,424.94Zm-1.79-3c-1.76-4.28,3.56-3.06,5-2.25a23.5,23.5,0,0,1,2.69,1.82,66.34,66.34,0,0,1,5,4.46c-1.77-.33-3.56-.51-5.34-.78C152.47,424.85,148.18,424.28,147.21,421.92Z" style="fill:#263238"></path><path d="M174.87,159.89C185.92,173.76,202,186.14,209,186c8.12-.12,22.5-7.64,36.08-17.92,3-2.25-14.6-24.21-16.51-22.42-6.55,6.15-21.52,14.8-22.88,15.24-1.56.5-14.54-5.42-22.65-10.2C170.29,143.2,167.05,150.07,174.87,159.89Z" style="fill:#eb9481"></path><path d="M242.94,169.42c3-.5,16.69-4,20.28-5.85s13.51-7.83,12.39-10.72-4.17-1.36-4.17-1.36,3.79-3.2,2.4-6-6.06-.27-6.06-.27,3.65-3.57,2.06-6.27-5.85.64-5.85.64,3.49-3.11,1.25-4.78c-2.7-2-8.5,4.45-12.6,6.17-.94.39-19.48,6.58-19.48,6.58Z" style="fill:#eb9481"></path><path d="M264.36,139.3c-4.27,4.74-7,6.08-13,7.78-.12,0-.09.22,0,.19,6.08-1.12,9.69-2.31,13.22-7.77C264.77,139.23,264.56,139.07,264.36,139.3Z" style="fill:#263238"></path><path d="M268.11,144.83c-4.86,4.54-7.77,6-14,8.26-.09,0,0,.18.05.16,6.27-1.7,9.85-3,14.11-8.14C268.5,144.88,268.33,144.62,268.11,144.83Z" style="fill:#263238"></path><path d="M271.12,151.59c-5,4.06-8.14,5.81-14.44,7.22a.12.12,0,0,0,0,.24c6.57-.82,10.47-3,14.52-7.29C271.5,151.47,271.44,151.34,271.12,151.59Z" style="fill:#263238"></path><path d="M228.41,145.79s5-6.23,7.81-8.49,16.35-6.79,17.5-3.92c1.48,3.7-5.82,7.87-9.66,9.44,0,0,3.43,8.56-1.16,12.69S228.41,145.79,228.41,145.79Z" style="fill:#eb9481"></path><path d="M253.79,134.53c-1.08,4.35-6.26,6.09-9.87,7.89a.37.37,0,0,0-.12.6c1.2,3.69,1.82,9.24-.65,12.5a.1.1,0,0,0,.14.13c3.12-3.15,3-8.65,1.39-12.6,3.73-1.79,8.85-3.77,9.15-8.51C253.84,134.51,253.8,134.5,253.79,134.53Z" style="fill:#263238"></path><path d="M201.78,185.67l2.87-25.46s-12-6.26-24.92-11.7-14.09,1.06-3.24,15A98.74,98.74,0,0,0,201.78,185.67Z" style="fill:#00573F"></path><path d="M196.67,179.22A183.87,183.87,0,0,1,199.49,159c0-.08.14,0,.13,0-.32,1.62-1.42,12.73-2.82,20.22C196.79,179.35,196.66,179.3,196.67,179.22Z" style="fill:#263238"></path><path d="M203.56,169.83l-1.78,15.84a98.74,98.74,0,0,1-25.29-22.2c-4-5.09-6.33-9.18-7.09-12.05Z" style="opacity:0.1"></path><path d="M190.39,186l3.69,23.14H135.46s11.34-43.19,25-57.49c6.85-7.15,14.72-6.45,19.64-1.25,1.24,1.31,12.4,17.46,13.85,25.15A10.88,10.88,0,0,1,190.39,186Z" style="fill:#00573F"></path><path d="M172.79,183.64a47.06,47.06,0,0,1,8,.78c1.32.27,2.62.6,3.93,1,.65.18,1.3.34,1.95.5a8.1,8.1,0,0,0,2.07.26c.06,0,.07.1,0,.11a12.82,12.82,0,0,1-2,.13,12.34,12.34,0,0,1-1.9-.24c-1.34-.25-2.67-.58-4-.85-2.7-.54-5.39-1.09-8.12-1.41C172.66,183.88,172.67,183.63,172.79,183.64Z" style="fill:#263238"></path><path d="M166.49,187a50,50,0,0,1,6.55-1,30.42,30.42,0,0,1,3.31-.07l1.58.06c.58,0,1.16.16,1.74.18.06,0,.07.11,0,.11-.55,0-1.09.1-1.64.13l-1.65.1c-1.1.07-2.19.15-3.29.21-2.21.11-4.4.25-6.59.46C166.39,187.19,166.38,187,166.49,187Z" style="fill:#263238"></path><path d="M163.92,160.22c-9.5,15.58-25.52,32.78-31.67,32.14-7.69-.8-20.31-5.52-36.83-12.94-3.23-1.45,3.83-27.06,7.25-25.44,7.61,3.61,23.14,12.05,27.27,13.32,1.94.59,16.22-8.81,28.46-15.37C166.62,147.52,168.85,152.14,163.92,160.22Z" style="fill:#eb9481"></path><path d="M76.87,172.61c5.09,3.38,20.6,7.91,24,7.37s6.81-20.49,4.62-23.28-18.05-15-24.25-14.45S71.6,169.12,76.87,172.61Z" style="fill:#eb9481"></path><path d="M90.78,104.59V82.09a23.11,23.11,0,0,1,14.54,1.58c7.81,3.49,16.38,19,31.92,12.3,0,0-7.15,10.51-19.28,11C108.14,107.32,99.51,97.77,90.78,104.59Z" style="fill:#00573F"></path><rect x="90.24" y="81.39" width="1.06" height="105.04" style="fill:#263238"></rect><path d="M91,143.31c1.38,2.93-2.86,2.88-2.86,2.88s6.08,1.54,6.34,5.11-4.88,3.2-5.24,3.19c.32.08,5.87,1.64,5.76,5.25s-5.21,2.63-5.54,2.56c.28.18,3.92,2.55,3.21,5.27-1.22,4.68-10.69-1.12-14.46,0,0,0-.94,5.16-.94,5.36,0,0-7.11-3.91-8.27-9.07a3.36,3.36,0,0,1,1.8-3.83s-3.14-1.4-3.14-4.25C67.64,154.27,70,153,70,153a4.26,4.26,0,0,1-2.31-3.76c.12-2,2.45-3,2.45-3s-1.82-2.27-1-4.29C70.67,137.83,88,137.05,91,143.31Z" style="fill:#eb9481"></path><path d="M70.46,146a0,0,0,1,1,0-.09,30.14,30.14,0,0,1,17.91.26c.18.07.15.39-.06.36A61.6,61.6,0,0,0,70.46,146Z" style="fill:#263238"></path><path d="M69.89,152.94c-.06,0-.08-.1,0-.12a28.21,28.21,0,0,1,19.52,1.5c.21.1.29.41,0,.3C85.2,152.91,75.46,152.22,69.89,152.94Z" style="fill:#263238"></path><path d="M89.79,162.66c-6-2.69-12.27-3.19-18.78-2.77-.08,0-.08-.11,0-.14,3.13-1.07,7.3-.9,10.54-.5a17.36,17.36,0,0,1,8.35,3.2C90,162.52,89.92,162.72,89.79,162.66Z" style="fill:#263238"></path><path d="M88.12,146.19a20.41,20.41,0,0,1,3.29,1.51,6.61,6.61,0,0,1,2.53,2.35,2.17,2.17,0,0,1,.22,1.55A3.23,3.23,0,0,1,93.4,153a3.91,3.91,0,0,1-3,1l-2.64-.16,2.43,1.07a10.67,10.67,0,0,1,3,1.89,3.89,3.89,0,0,1,1.46,2.82A2.22,2.22,0,0,1,93,161.86a6.77,6.77,0,0,1-3.37-.06l-3-.75,2.63,1.7a10.26,10.26,0,0,1,2,1.67,4.17,4.17,0,0,1,1.14,2.14,2,2,0,0,1-.82,1.94A4.46,4.46,0,0,1,89,169a35.09,35.09,0,0,1-5.38-.89c-.9-.19-1.8-.38-2.71-.53a6.58,6.58,0,0,0-2.76,0,7.12,7.12,0,0,1,2.71.26c.89.22,1.77.48,2.65.73a29.7,29.7,0,0,0,5.45,1.2,5.25,5.25,0,0,0,2.93-.45,2.82,2.82,0,0,0,1.32-2.81,5.17,5.17,0,0,0-1.34-2.7,11.32,11.32,0,0,0-2.19-1.89l-.43.95a7.84,7.84,0,0,0,4,.12,3.23,3.23,0,0,0,1.79-1.24,3.63,3.63,0,0,0,.62-2.06,4.89,4.89,0,0,0-1.84-3.57,11.65,11.65,0,0,0-3.29-2l-.22.91A4.63,4.63,0,0,0,94,153.53a3.89,3.89,0,0,0,.85-1.8,2.78,2.78,0,0,0-.36-2,6.77,6.77,0,0,0-2.89-2.35A16.42,16.42,0,0,0,88.12,146.19Z" style="fill:#263238"></path><path d="M106.9,157S93.23,129.2,85,140.32c-2,2.69-5.27,16.76-2.5,17.53,3.58,1,6.15-4.52,7.22-8.23,0,0,3.79,8,10.18,7.07A17.68,17.68,0,0,1,106.9,157Z" style="fill:#eb9481"></path><path d="M85.48,139.54A13.58,13.58,0,0,0,83.57,143a29.07,29.07,0,0,0-1.25,3.76,45.45,45.45,0,0,0-1.42,7.82,7.53,7.53,0,0,0,.1,2.1,2.77,2.77,0,0,0,.49,1.1,1.93,1.93,0,0,0,.48.46,2,2,0,0,0,.6.27,3.28,3.28,0,0,0,2.3-.23A6.24,6.24,0,0,0,86.6,157a11.81,11.81,0,0,0,2.18-3.46,27.37,27.37,0,0,0,1.33-3.78l-.86.06a15.72,15.72,0,0,0,1.64,2.56A14.79,14.79,0,0,0,93,154.54a10.11,10.11,0,0,0,2.56,1.58,7.73,7.73,0,0,0,2.9.64,9.07,9.07,0,0,1-2.76-.92,10.65,10.65,0,0,1-2.31-1.73,13.39,13.39,0,0,1-1.86-2.19,15.47,15.47,0,0,1-1.42-2.49l-.47-1.08-.38,1.14a31,31,0,0,1-1.39,3.59,11.85,11.85,0,0,1-2,3.14,3.25,3.25,0,0,1-2.94,1.24c-.87-.17-1-1.61-.93-2.83a36.34,36.34,0,0,1,.4-3.86c.19-1.29.39-2.58.65-3.85A25.33,25.33,0,0,1,85.48,139.54Z" style="fill:#263238"></path><path d="M130.39,166.13l20.22,14.77s7.6-10.15,16-21.36,2.88-14.56-13.21-6.93C137.48,160.16,130.39,166.13,130.39,166.13Z" style="fill:#00573F"></path><path d="M151.76,175.34a171.18,171.18,0,0,1-15.64-10.85c-.06,0,0-.13.09-.08,1.22.94,10,6.52,15.65,10.83C151.92,175.29,151.83,175.38,151.76,175.34Z" style="fill:#263238"></path><path d="M161.62,168,160,169.39l-.36.32q1.88-2.66,3.62-5.39s0-.09-.07,0c-2.16,2.72-4.35,5.43-6.48,8.17s-4.37,5.29-6.32,8.09l-1.11-.29a.08.08,0,0,0,0,.16l1.17.54a.19.19,0,0,0,.2,0,76.38,76.38,0,0,0,6.64-7.93q.87-1.12,1.71-2.28l.12-.11.56-.49c.71-.65,1.4-1.33,2.05-2.05C161.73,168,161.67,167.93,161.62,168Z" style="fill:#263238"></path><path d="M158.45,150.07s11.74,11.65,19.12,9.47,5-9.84,5-9.84-4.46-3.28-12.11-3.28C165.83,146.42,158.45,150.07,158.45,150.07Z" style="fill:#eb9481"></path><path d="M180.15,179.51a99.13,99.13,0,0,1-11-17.73,33.4,33.4,0,0,1-3.25-9.95,10.77,10.77,0,0,1,0-2.66,7.73,7.73,0,0,1,.3-1.31,5.53,5.53,0,0,1,.62-1.21,7.15,7.15,0,0,1,1.95-1.85,7.57,7.57,0,0,1,2.51-1,8.83,8.83,0,0,1,5.24.72,7.65,7.65,0,0,1,3.82,3.62,8.38,8.38,0,0,1,.58,2.59c.1.88.14,1.75.18,2.62.07,1.75.08,3.49.06,5.23C181.09,165.61,180.68,172.56,180.15,179.51Zm0,0q.27-5.22.44-10.44c.12-3.48.22-7,.23-10.44,0-1.74,0-3.48-.1-5.21-.05-.87-.09-1.74-.2-2.59a8.1,8.1,0,0,0-.57-2.47,7.25,7.25,0,0,0-3.63-3.38,8.48,8.48,0,0,0-5-.64,6.88,6.88,0,0,0-2.35.87,6.71,6.71,0,0,0-1.82,1.7,5,5,0,0,0-.58,1.1,7.33,7.33,0,0,0-.29,1.23,9.88,9.88,0,0,0,0,2.55,33,33,0,0,0,3.13,9.85,91,91,0,0,0,5,9.17A98.55,98.55,0,0,0,180.15,179.51Z" style="fill:#263238"></path><rect x="174.57" y="178.51" width="11.25" height="7.07" transform="translate(-21.24 23.82) rotate(-7.14)" style="fill:#fff"></rect><rect x="182.38" y="179.22" width="2.31" height="2.99" transform="translate(-21.04 24.22) rotate(-7.14)" style="fill:#00573F"></rect><rect x="175.51" y="180.05" width="4.2" height="0.43" transform="translate(-21.04 23.49) rotate(-7.14)" style="fill:#a6a6a6"></rect><rect x="175.59" y="180.81" width="3.46" height="0.28" transform="translate(-21.12 23.45) rotate(-7.14)" style="fill:#a6a6a6"></rect><rect x="175.74" y="181.96" width="5.9" height="0.28" transform="translate(-21.26 23.64) rotate(-7.14)" style="fill:#ebebeb"></rect><rect x="175.81" y="182.53" width="5.9" height="0.28" transform="translate(-21.33 23.65) rotate(-7.14)" style="fill:#ebebeb"></rect><rect x="175.92" y="183.25" width="9.08" height="0.28" transform="translate(-21.4 23.86) rotate(-7.14)" style="fill:#ebebeb"></rect><rect x="175.99" y="183.84" width="9.08" height="0.28" transform="translate(-21.48 23.88) rotate(-7.14)" style="fill:#ebebeb"></rect><rect x="176.06" y="184.43" width="9.08" height="0.28" transform="translate(-21.55 23.89) rotate(-7.14)" style="fill:#ebebeb"></rect><path d="M168,150c.3,1,5.42,7.06,9.92,6.56,1.46-.17.9-8.2.9-8.2l.09-.6,1.32-8.42L170,133.7l-1.46-.74s-.21,2.33-.44,5.23c0,.14,0,.27,0,.42a3.73,3.73,0,0,0,0,.47c0,.43-.08.87-.11,1.31s-.05.67-.06,1l-.06,1.05A55.59,55.59,0,0,0,168,150Z" style="fill:#eb9481"></path><path d="M168.11,138.19a17.09,17.09,0,0,0,10.75,9.55l1.32-8.42L170,133.7l-1.46-.74S168.34,135.29,168.11,138.19Z" style="fill:#263238"></path><path d="M167.43,133.57c-2.09-.48-7.48,1-9.31,3.73s-1.72,7.28-.8,7.73,4.91.15,7.66-1.33S168.46,133.81,167.43,133.57Z" style="fill:#263238"></path><path d="M167.43,133.58c.07,0,.08-.13,0-.13a19.15,19.15,0,0,0-5.54,1,10.55,10.55,0,0,0-4,1.8,4.92,4.92,0,0,0-1.82,3.69,10,10,0,0,0,.91,5s.1,0,.09,0c-.81-3.06-1.51-6.79,1.54-8.84C161.19,134.36,164.48,134.19,167.43,133.58Z" style="fill:#263238"></path><path d="M157.22,144c-1.54,1-4.28,6.23-3.47,9.7s5.6,6.86,6.56,6.8,3.14-4.83,3.25-7.6c.07-1.86-1.39-3.27-2.58-4.8C159.23,145.82,157.46,143.83,157.22,144Z" style="fill:#263238"></path><path d="M164.36,152c-1.07-3.42-4.41-5.69-6.9-8a0,0,0,0,0-.05,0c2,2.46,4.82,4.13,6.27,7a5.85,5.85,0,0,1,.19,5.41,17.32,17.32,0,0,1-3.28,3.87c-.08.08,0,.18.13.11C163.09,158.09,165.46,155.53,164.36,152Z" style="fill:#263238"></path><path d="M157,144.45c.06-.08-.06-.18-.12-.1-1.8,2.24-3.82,5.23-3.92,8.21-.1,3.22,2.57,5.24,4.9,7,0,0,.07,0,0,0-2.34-1.77-5-4.07-4.69-7.32C153.49,149.37,155.33,146.61,157,144.45Z" style="fill:#263238"></path><path d="M160.15,160.39c-1.13,2.76-2.28,6.62-.44,8.65a16.51,16.51,0,0,0,6.83,3.69c.26-.16,2.87-5.15,2.08-8.41S160.3,160,160.15,160.39Z" style="fill:#263238"></path><path d="M166.84,172.79c-2.62-.46-5.87-1.3-7.43-3.68s-.35-6,.58-8.28c0,0,0-.05,0,0-1.15,2.29-2.25,5.88-.82,8.27s5.07,3.73,7.7,3.81C166.89,172.89,166.89,172.8,166.84,172.79Z" style="fill:#263238"></path><path d="M166.09,172.18A7.78,7.78,0,0,1,170,177c1.08,4.11,2.58,3.14,7.25,3.83a4.55,4.55,0,0,1,3.3,7.14,3,3,0,0,0-1.77-3.83c-3.25-1.27-10,2.65-14-1.41C159.62,177.49,166.09,172.18,166.09,172.18Z" style="fill:#263238"></path><path d="M167.9,174c-.05-.05,0-.15.09-.1a6.14,6.14,0,0,1,1.43,1.7c.47.85.58,1.8,1,2.67,1,2.22,3.81,1.88,5.82,1.84,2.71-.06,5,1.39,5.45,4.2,0,0-.06,0-.06,0a4.82,4.82,0,0,0-3.23-3.8c-1.63-.51-3.37,0-5-.24a3.78,3.78,0,0,1-2.91-1.58,9.5,9.5,0,0,1-.68-1.87A6.68,6.68,0,0,0,167.9,174Z" style="fill:#263238"></path><path d="M165.43,172.75s.06,0,0,0c-1.39,1.64-2.86,3.3-3.1,5.54a6.44,6.44,0,0,0,3.18,5.92c2.23,1.41,4.39.44,6.68-.23a9.67,9.67,0,0,1,5.05-.42.05.05,0,0,1,0,.1c-2.72-.38-5.08.64-7.65,1.3a5.26,5.26,0,0,1-5.38-1.57C160.87,180.05,162.34,175.71,165.43,172.75Z" style="fill:#263238"></path><path d="M165.85,131.64a.73.73,0,0,0-1.15.9A.73.73,0,0,0,165.85,131.64Z" style="fill:#00573F"></path><path d="M166.4,132.88c-.57-.75-1.72.16-1.14.9S167,133.62,166.4,132.88Z" style="fill:#00573F"></path><path d="M167.16,134c-.57-.74-1.71.16-1.14.91S167.74,134.76,167.16,134Z" style="fill:#00573F"></path><path d="M168.05,135a.73.73,0,0,0-1.15.91A.73.73,0,0,0,168.05,135Z" style="fill:#00573F"></path><path d="M169.11,135.86c-.57-.74-1.71.16-1.14.91S169.69,136.6,169.11,135.86Z" style="fill:#00573F"></path><path d="M170.27,136.48a.73.73,0,0,0-1.15.91A.73.73,0,0,0,170.27,136.48Z" style="fill:#00573F"></path><path d="M190.42,125.59c3.12,14.64-5.3,18.16-8.46,18.83-2.86.61-12.7,2.31-17.31-11.93s1.2-20.31,7.68-22.05S187.3,111,190.42,125.59Z" style="fill:#eb9481"></path><path d="M187.72,122.43c-.35,0-.68,0-1,0a1.63,1.63,0,0,1-1.06-.2.52.52,0,0,1-.13-.63,1.31,1.31,0,0,1,1.21-.58,2,2,0,0,1,1.33.42A.57.57,0,0,1,187.72,122.43Z" style="fill:#263238"></path><path d="M178.12,124.54a8.06,8.06,0,0,0,.95-.42,1.72,1.72,0,0,0,.88-.61.55.55,0,0,0-.14-.64,1.33,1.33,0,0,0-1.34,0,1.9,1.9,0,0,0-1,.93A.56.56,0,0,0,178.12,124.54Z" style="fill:#263238"></path><path d="M182.35,135.79c.27.2.56.49.93.47a2.83,2.83,0,0,0,1.05-.42s.07,0,0,0a1.37,1.37,0,0,1-1.2.74,1.08,1.08,0,0,1-.92-.77S182.31,135.76,182.35,135.79Z" style="fill:#263238"></path><path d="M185.76,131.31s.52,1.45.67,2.15c0,.07-.15.13-.39.2h0a3.4,3.4,0,0,1-3.5-.56.07.07,0,0,1,.08-.12,5.22,5.22,0,0,0,3.24.23c0-.2-1-2.45-.86-2.48a6.3,6.3,0,0,1,1.67,0c-1-3-2.47-5.91-3.41-8.95,0-.11.12-.18.17-.09a51.15,51.15,0,0,1,4.08,9.49C187.62,131.6,186.07,131.37,185.76,131.31Z" style="fill:#263238"></path><path d="M185.93,133.18a4.28,4.28,0,0,1-1.18,1.75,1.87,1.87,0,0,1-1.06.41c-.85,0-1.1-.66-1.16-1.32a4.47,4.47,0,0,1,0-1.05A5.35,5.35,0,0,0,185.93,133.18Z" style="fill:#263238"></path><path d="M184.75,134.93a1.87,1.87,0,0,1-1.06.41c-.85,0-1.1-.66-1.16-1.32A1.94,1.94,0,0,1,184.75,134.93Z" style="fill:#ff98b9"></path><path d="M186.34,126.47s.09,0,.1.08c.17,1,.55,2.15,1.53,2.29,0,0,0,.06,0,.06C186.82,129,186.34,127.46,186.34,126.47Z" style="fill:#263238"></path><path d="M187,125.23c1.6-.45,2.4,2.77.92,3.2S185.68,125.62,187,125.23Z" style="fill:#263238"></path><path d="M187.7,125.25c.32.11.68.36,1,.31s.61-.47.79-.86c0,0,0,0,.07,0a1.21,1.21,0,0,1-.56,1.56c-.59.24-1.16-.2-1.46-.78C187.51,125.4,187.57,125.2,187.7,125.25Z" style="fill:#263238"></path><path d="M180.67,127.65s-.06.07,0,.11c.29,1,.45,2.17-.37,2.74,0,0,0,.06,0,.05C181.34,130.11,181.1,128.55,180.67,127.65Z" style="fill:#263238"></path><path d="M179.52,126.84c-1.64.29-.94,3.54.57,3.27S180.89,126.6,179.52,126.84Z" style="fill:#263238"></path><path d="M178.88,127.2c-.22.23-.4.6-.71.68s-.68-.19-1-.48c0,0-.06,0-.05,0,.12.63.46,1.23,1.09,1.22s.85-.62.86-1.27C179.1,127.26,179,127.11,178.88,127.2Z" style="fill:#263238"></path><path d="M165,131.93c2.45-.06,2.48-5.21,2.48-5.21s4.93-.49,5.83-7.75a11,11,0,0,1-1.58,6.09s8.6-1.82,11.51-9.48c0,0-1.08,3.86-2.31,5.32a10.26,10.26,0,0,0,5-4.54s2,4,3.25,5.08c0,0-.95-16.83-15.86-12.1,0,0-9.85.39-12.34,7.68A13.53,13.53,0,0,0,165,131.93Z" style="fill:#263238"></path><path d="M167.36,132.46s-3.82-4.23-5.78-2.81,1.32,7.83,3.9,8.44a2.53,2.53,0,0,0,3.2-1.76Z" style="fill:#eb9481"></path><path d="M162.57,131.46s0,.06,0,.07a6.42,6.42,0,0,1,3.78,3.57,1.39,1.39,0,0,0-2.12-.13s0,.11.05.09a1.56,1.56,0,0,1,1.77.33,7.6,7.6,0,0,1,1,1.27c.1.15.37,0,.29-.14l0,0C167.07,134.27,165,131.39,162.57,131.46Z" style="fill:#263238"></path></g><g id="freepik--speech-bubble--inject-84"><path d="M196.8,105.94a11.72,11.72,0,0,1-2-6.47c0-8.18,9-14.82,20.07-14.82s20.06,6.64,20.06,14.82-9,14.83-20.06,14.83A24.14,24.14,0,0,1,201,110.2L194.11,112Z" style="fill:#fff"></path><path d="M196.8,105.94a11.41,11.41,0,0,1-.55-12.44,15.81,15.81,0,0,1,4.42-4.86,21.55,21.55,0,0,1,5.86-3A27.28,27.28,0,0,1,213,84.31a28,28,0,0,1,6.59.32,21.82,21.82,0,0,1,11.78,5.73A13.94,13.94,0,0,1,234.89,96a11.55,11.55,0,0,1,.06,6.69,13.91,13.91,0,0,1-3.46,5.71,19.35,19.35,0,0,1-5.41,3.83,25.77,25.77,0,0,1-12.87,2.35,23.85,23.85,0,0,1-12.32-4.22l.19,0-6.94,1.65-.25.06.11-.23Zm0,0L194.22,112l-.14-.16L201,110l.1,0,.09.06a23.56,23.56,0,0,0,12.09,3.88,26.72,26.72,0,0,0,6.38-.46,22.88,22.88,0,0,0,6.06-2,18.3,18.3,0,0,0,5.14-3.68,13,13,0,0,0,3.19-5.33,10.61,10.61,0,0,0-.08-6.14A13.12,13.12,0,0,0,230.67,91a21.08,21.08,0,0,0-11.25-5.54,26.79,26.79,0,0,0-12.67.81,18.13,18.13,0,0,0-10.13,7.42,11.46,11.46,0,0,0-1.7,6.1A11.89,11.89,0,0,0,196.8,105.94Z" style="fill:#263238"></path><path d="M222.09,99.47a2.08,2.08,0,1,0,2.08-2.08A2.08,2.08,0,0,0,222.09,99.47Z" style="fill:#263238"></path><path d="M212.78,99.47a2.09,2.09,0,1,0,2.09-2.08A2.09,2.09,0,0,0,212.78,99.47Z" style="fill:#263238"></path><path d="M203.48,99.47a2.09,2.09,0,1,0,2.09-2.08A2.09,2.09,0,0,0,203.48,99.47Z" style="fill:#263238"></path></g></svg>